<svg width="116" height="30" viewBox="0 0 116 30" fill="none" xmlns="http://www.w3.org/2000/svg">
<path d="M2.26752 11.4237C0.476545 9.96965 0 8.06975 0 6.43156C0 5.2829 0.382285 3.28121 2.14184 1.79328C3.45627 0.673691 5.19488 0 7.92324 0C9.05962 0 9.73516 0.0678539 10.573 0.169635C11.2695 0.256875 11.8508 0.407122 12.4007 0.460436C12.6049 0.474976 12.6782 0.562217 12.6782 0.663997C12.6782 0.799705 12.6206 1.00327 12.584 1.59456C12.5473 2.15193 12.563 3.0825 12.5316 3.42177C12.5107 3.6738 12.4792 3.8095 12.3117 3.8095C12.165 3.8095 12.1284 3.67379 12.1284 3.43631C12.1127 2.91286 11.8718 2.31672 11.4162 1.87567C10.8139 1.28437 9.3843 0.828785 7.70329 0.828785C6.11131 0.828785 5.06919 1.20198 4.26273 1.87567C2.92735 3.0098 2.58173 4.6189 2.58173 6.26193C2.58173 10.2895 5.89137 12.2864 8.34218 12.2864C9.97082 12.2864 10.9553 12.1167 11.6885 11.3413C11.9974 11.0214 12.2383 10.527 12.3117 10.2265C12.3693 9.95511 12.4007 9.88726 12.5525 9.88726C12.6782 9.88726 12.7149 10.0036 12.7149 10.1393C12.7149 10.3428 12.4949 11.8162 12.3117 12.393C12.2226 12.679 12.1493 12.7662 11.8351 12.8825C11.102 13.1539 9.71422 13.2703 8.54118 13.2703C6.03276 13.2703 3.93282 12.7613 2.26752 11.4237Z" fill="white"/>
<path d="M25.3768 7.93892C25.3768 4.76434 23.4025 2.79658 20.8941 2.79658C19.1345 2.79658 17.1288 3.70291 17.1288 7.2313C17.1288 10.1781 18.8884 12.5142 21.8262 12.5142C22.8945 12.5142 25.3768 12.0344 25.3768 7.93892ZM15.0132 7.66751C15.0132 5.24416 16.7466 2.11804 21.334 2.11804C25.1464 2.11804 27.5134 4.16819 27.5134 7.41548C27.5134 10.6579 25.0678 13.2218 21.1769 13.2218C16.7885 13.2218 15.0132 10.1781 15.0132 7.66751Z" fill="white"/>
<path d="M33.0014 8.91792C33.0014 10.7306 33.0014 11.7096 33.3208 11.9616C33.5827 12.1749 33.9807 12.2718 35.1747 12.2718C35.9864 12.2718 36.5834 12.2573 36.9657 11.8744C37.1489 11.6902 37.3322 11.2928 37.3636 11.0262C37.3794 10.9002 37.4108 10.813 37.5312 10.813C37.6412 10.813 37.6517 10.8857 37.6517 11.0553C37.6517 11.2104 37.5469 12.2767 37.4213 12.6838C37.3322 12.994 37.2537 13.0667 36.4577 13.0667C34.253 13.0667 33.2475 12.9843 32.0064 12.9843C31.6555 12.9843 30.692 13.0279 30.0793 13.0279C29.8803 13.0279 29.7703 12.9843 29.7703 12.8874C29.7703 12.8147 29.8331 12.7759 30.0164 12.7759C30.2468 12.7759 30.4301 12.7468 30.5663 12.7177C30.87 12.6596 30.9486 12.3494 31.0114 11.9374C31.0847 11.3413 31.0847 10.2217 31.0847 8.92277V6.43157C31.0847 4.27963 31.0847 3.88221 31.0533 3.43146C31.0219 2.95164 30.9014 2.72385 30.3935 2.62206C30.273 2.59298 30.0897 2.57844 29.8907 2.57844C29.7232 2.57844 29.6289 2.54936 29.6289 2.45243C29.6289 2.35065 29.7336 2.32642 29.9641 2.32642C30.6815 2.32642 31.6451 2.37004 32.0588 2.37004C32.4254 2.37004 33.5408 2.32642 34.1378 2.32642C34.3525 2.32642 34.4572 2.3555 34.4572 2.45243C34.4572 2.54936 34.363 2.57844 34.1797 2.57844C34.0121 2.57844 33.766 2.59298 33.5827 2.62206C33.169 2.69477 33.0485 2.93225 33.0171 3.43146C32.9857 3.88221 32.9857 4.27963 32.9857 6.43157V8.91792H33.0014Z" fill="white"/>
<path d="M40.6005 6.42205C40.6005 4.27011 40.6005 3.87268 40.5691 3.42194C40.5377 2.94212 40.4172 2.71432 39.9145 2.61254C39.7941 2.58346 39.5322 2.56892 39.3175 2.56892C39.1499 2.56892 39.0557 2.53984 39.0557 2.44291C39.0557 2.34597 39.1604 2.31689 39.3908 2.31689C40.2025 2.31689 41.1661 2.36051 41.6217 2.36051C41.9883 2.36051 42.9571 2.31689 43.5069 2.31689C43.7374 2.31689 43.8421 2.34597 43.8421 2.44291C43.8421 2.53984 43.7531 2.56892 43.596 2.56892C43.4284 2.56892 43.3341 2.58346 43.1508 2.61254C42.7371 2.68524 42.6167 2.92758 42.5853 3.42194C42.5538 3.87268 42.5538 4.27011 42.5538 6.42205V8.40434C42.5538 10.4593 42.999 11.3221 43.7478 11.8891C44.4391 12.4126 45.1408 12.4707 45.6593 12.4707C46.3348 12.4707 47.157 12.272 47.7697 11.7049C48.6128 10.9246 48.6547 9.64995 48.6547 8.19109V6.42205C48.6547 4.27011 48.6547 3.87268 48.6233 3.42194C48.5919 2.94212 48.4662 2.71432 47.9634 2.61254C47.8378 2.58346 47.5812 2.56892 47.4136 2.56892C47.246 2.56892 47.1517 2.53984 47.1517 2.44291C47.1517 2.34597 47.2565 2.31689 47.4712 2.31689C48.2515 2.31689 49.215 2.36051 49.2307 2.36051C49.414 2.36051 50.3776 2.31689 50.9746 2.31689C51.1893 2.31689 51.294 2.34597 51.294 2.44291C51.294 2.53984 51.1998 2.56892 51.0217 2.56892C50.8541 2.56892 50.7599 2.58346 50.5766 2.61254C50.1629 2.68524 50.0424 2.92758 50.011 3.42194C49.9796 3.87268 49.9796 4.27011 49.9796 6.42205V7.93906C49.9796 9.51424 49.812 11.1815 48.5238 12.2042C47.4398 13.0669 46.3348 13.2268 45.3398 13.2268C44.5281 13.2268 43.0618 13.1832 41.9411 12.2478C41.1609 11.5983 40.5796 10.5466 40.5796 8.49158V6.42205H40.6005Z" fill="white"/>
<path d="M54.9855 2.3749C55.0327 2.13257 55.1217 2.00656 55.2474 2.00656C55.3678 2.00656 55.4621 2.07441 55.6611 2.44276L59.84 10.4301L64.0033 2.34098C64.1133 2.11318 64.2023 2.00171 64.3384 2.00171C64.4746 2.00171 64.5689 2.14226 64.616 2.43791L66.009 11.191C66.1451 12.0828 66.3022 12.4948 66.7578 12.6208C67.203 12.7468 67.5067 12.7614 67.7057 12.7614C67.8418 12.7614 67.9518 12.7759 67.9518 12.8583C67.9518 12.9698 67.7685 13.0134 67.5538 13.0134C67.1715 13.0134 65.0611 12.9698 64.4484 12.9262C64.0975 12.8971 64.0033 12.8535 64.0033 12.7711C64.0033 12.6984 64.0661 12.6547 64.1709 12.616C64.2599 12.5869 64.307 12.4027 64.2494 12.0053L63.3277 5.77244H63.2649L59.9291 12.204C59.5782 12.868 59.4996 12.9989 59.3635 12.9989C59.2273 12.9989 59.0755 12.7129 58.8293 12.2912C58.4628 11.6418 57.2531 9.47046 57.0698 9.07788C56.9336 8.77739 56.0119 6.9938 55.4778 5.93238H55.4149L54.619 11.5691C54.5875 11.826 54.5718 12.0101 54.5718 12.2379C54.5718 12.5045 54.7708 12.6354 55.0327 12.6935C55.305 12.7517 55.5249 12.7662 55.6768 12.7662C55.8025 12.7662 55.9072 12.7953 55.9072 12.8631C55.9072 12.9892 55.771 13.0182 55.5406 13.0182C54.8965 13.0182 54.2105 12.9746 53.9329 12.9746C53.6397 12.9746 52.9065 13.0182 52.4143 13.0182C52.2624 13.0182 52.1367 12.9892 52.1367 12.8631C52.1367 12.7904 52.231 12.7662 52.3828 12.7662C52.5085 12.7662 52.6133 12.7662 52.8384 12.7226C53.2679 12.6354 53.3935 12.0877 53.4669 11.603L54.9855 2.3749Z" fill="white"/>
<path d="M75.174 7.79851C74.8546 7.58525 74.5037 7.48832 73.9015 7.45924C73.6292 7.4447 73.4721 7.4447 73.2417 7.4447C73.1788 7.4447 73.1526 7.47378 73.1526 7.54163V10.9004C73.1526 11.8358 73.1998 12.0781 73.6868 12.2575C74.1005 12.4126 74.4514 12.4271 74.8022 12.4271C75.4935 12.4271 76.656 12.0878 76.656 10.6144C76.6613 9.73719 76.3366 8.54974 75.174 7.79851ZM73.1526 6.66438C73.1526 6.7807 73.1998 6.80493 73.2574 6.81947C73.3935 6.84856 73.6239 6.8631 73.98 6.8631C74.4828 6.8631 74.8232 6.80493 75.0798 6.59168C75.4778 6.29603 75.7082 5.78228 75.7082 5.09405C75.7082 4.1441 75.1112 2.8985 73.7968 2.8985C73.5821 2.8985 73.4459 2.8985 73.294 2.92758C73.1841 2.95666 73.1579 3.00997 73.1579 3.16507V6.66438H73.1526ZM71.3198 6.42205C71.3198 4.27011 71.3198 3.87268 71.2883 3.42194C71.2569 2.94212 71.1365 2.71432 70.6285 2.61254C70.5081 2.58346 70.2462 2.56892 70.0315 2.56892C69.8639 2.56892 69.7749 2.53984 69.7749 2.44291C69.7749 2.34597 69.8796 2.31689 70.1101 2.31689C70.9218 2.31689 71.8853 2.36051 72.1943 2.36051C72.9432 2.36051 73.5402 2.31689 74.0586 2.31689C76.8289 2.31689 77.3159 3.69336 77.3159 4.43975C77.3159 5.60295 76.5984 6.29603 75.7553 6.92126C77.0121 7.31868 78.5413 8.32195 78.5413 9.97952C78.5413 11.4965 77.2687 13.0669 74.4566 13.0669C74.09 13.0669 72.697 12.9845 72.2414 12.9845C71.8906 12.9845 70.927 13.0281 70.3091 13.0281C70.1101 13.0281 70.0053 12.9845 70.0053 12.8875C70.0053 12.8148 70.0682 12.7761 70.2515 12.7761C70.4819 12.7761 70.6652 12.747 70.8013 12.7179C71.1103 12.6597 71.1836 12.3496 71.2464 11.9376C71.325 11.3414 71.325 10.2219 71.325 8.92294V6.42205H71.3198Z" fill="white"/>
<path d="M81.9337 6.42205C81.9337 4.27011 81.9337 3.87268 81.9023 3.42194C81.8709 2.94212 81.719 2.69978 81.3839 2.62708C81.2163 2.58346 81.0173 2.56892 80.834 2.56892C80.6822 2.56892 80.5879 2.53984 80.5879 2.42837C80.5879 2.34597 80.7083 2.31689 80.9545 2.31689C81.5358 2.31689 82.4993 2.36051 82.9445 2.36051C83.3267 2.36051 84.2327 2.31689 84.814 2.31689C85.013 2.31689 85.1334 2.34597 85.1334 2.42837C85.1334 2.54469 85.0444 2.56892 84.8873 2.56892C84.7354 2.56892 84.6098 2.58346 84.4265 2.61254C84.0128 2.68524 83.8923 2.92758 83.8609 3.42194C83.8295 3.87268 83.8295 4.27011 83.8295 6.42205V8.91809C83.8295 10.2897 83.8295 11.4093 83.8923 12.02C83.9394 12.4029 84.0442 12.6549 84.505 12.7131C84.7197 12.7421 85.0549 12.7712 85.2853 12.7712C85.4529 12.7712 85.5314 12.8148 85.5314 12.8827C85.5314 12.9796 85.411 13.0232 85.2434 13.0232C84.2327 13.0232 83.2691 12.9796 82.8554 12.9796C82.5046 12.9796 81.541 13.0232 80.9283 13.0232C80.7293 13.0232 80.6245 12.9796 80.6245 12.8827C80.6245 12.81 80.6874 12.7712 80.8707 12.7712C81.1011 12.7712 81.2844 12.7421 81.4205 12.7131C81.7295 12.6549 81.8185 12.4174 81.8657 12.0054C81.9442 11.4093 81.9442 10.2946 81.9442 8.91809V6.42205H81.9337Z" fill="white"/>
<path d="M94.3718 8.62233C94.4451 8.62233 94.4661 8.57871 94.4451 8.53509L93.0678 5.03577C93.0521 4.97761 93.0364 4.90976 92.9945 4.90976C92.9474 4.90976 92.916 4.97761 92.9055 5.03577L91.4968 8.52055C91.4811 8.57871 91.4968 8.62233 91.5596 8.62233H94.3718V8.62233ZM91.2507 9.3251C91.1721 9.3251 91.1407 9.35418 91.1145 9.44142L90.2871 11.4673C90.1352 11.8211 90.0567 12.1604 90.0567 12.33C90.0567 12.5869 90.1981 12.7711 90.6694 12.7711H90.8998C91.0831 12.7711 91.1302 12.8002 91.1302 12.8826C91.1302 12.994 91.036 13.0231 90.8684 13.0231C90.3761 13.0231 89.7215 12.9795 89.245 12.9795C89.0774 12.9795 88.2343 13.0231 87.4383 13.0231C87.2393 13.0231 87.145 12.994 87.145 12.8826C87.145 12.7953 87.2079 12.7711 87.3283 12.7711C87.4645 12.7711 87.6792 12.7566 87.7996 12.742C88.5013 12.6548 88.7946 12.175 89.1036 11.4673L92.9422 2.57365C93.1254 2.16169 93.2197 2.00659 93.3716 2.00659C93.513 2.00659 93.602 2.13261 93.7539 2.45733C94.1204 3.23765 96.5713 9.01491 97.5505 11.1668C98.1318 12.4415 98.5769 12.6402 98.8964 12.7129C99.1268 12.7566 99.3572 12.7711 99.5353 12.7711C99.661 12.7711 99.7343 12.7856 99.7343 12.8826C99.7343 12.994 99.5981 13.0231 99.0273 13.0231C98.4774 13.0231 97.362 13.0231 96.1366 12.994C95.8591 12.9795 95.6758 12.9795 95.6758 12.8826C95.6758 12.7953 95.7386 12.7711 95.8905 12.7566C96.0004 12.7275 96.1052 12.5966 96.0266 12.427L94.8012 9.42688C94.7698 9.35418 94.7227 9.3251 94.6441 9.3251H91.2507V9.3251Z" fill="white"/>
<path d="M2.13387 21.8708C2.13387 19.2972 2.13386 18.8222 2.09721 18.2842C2.06055 17.7075 1.91916 17.436 1.31169 17.3197C1.16506 17.2858 0.856098 17.2712 0.599496 17.2712C0.400498 17.2712 0.290527 17.2373 0.290527 17.1162C0.290527 16.995 0.416204 16.9659 0.693754 16.9659C1.66256 16.9659 2.81465 17.0192 3.36452 17.0192C3.8044 17.0192 4.95649 16.9659 5.61632 16.9659C5.88864 16.9659 6.01955 16.9998 6.01955 17.1162C6.01955 17.2325 5.90959 17.2712 5.72107 17.2712C5.52207 17.2712 5.41209 17.2858 5.19215 17.3197C4.69989 17.4021 4.55326 17.6929 4.5166 18.2842C4.47994 18.827 4.47995 19.302 4.47995 21.8708V24.2408C4.47995 26.6981 5.00887 27.7304 5.90436 28.4041C6.72653 29.0342 7.56965 29.0972 8.19283 29.0972C8.99929 29.0972 9.9838 28.8597 10.7169 28.1812C11.7276 27.2506 11.78 25.7287 11.78 23.9839V21.8659C11.78 19.2923 11.78 18.8173 11.7434 18.2794C11.7067 17.7026 11.5601 17.4312 10.9578 17.3149C10.8112 17.2809 10.5022 17.2664 10.298 17.2664C10.099 17.2664 9.98904 17.2325 9.98904 17.1113C9.98904 16.9901 10.1147 16.9611 10.3713 16.9611C11.3087 16.9611 12.4608 17.0144 12.4765 17.0144C12.6965 17.0144 13.8486 16.9611 14.5608 16.9611C14.8174 16.9611 14.9483 16.995 14.9483 17.1113C14.9483 17.2276 14.8383 17.2664 14.6184 17.2664C14.4194 17.2664 14.3094 17.2809 14.0894 17.3149C13.5972 17.3973 13.4506 17.6881 13.4139 18.2794C13.3772 18.8222 13.3772 19.2972 13.3772 21.8659V23.6786C13.3772 25.5591 13.1782 27.5559 11.6386 28.7725C10.3399 29.8048 9.02023 29.989 7.83672 29.989C6.86791 29.989 5.1136 29.9405 3.77298 28.8209C2.84084 28.0454 2.14434 26.7902 2.14434 24.3377V21.8708H2.13387Z" fill="white"/>
<path d="M18.6666 27.8224C18.698 28.9274 18.897 29.2958 19.2007 29.3976C19.4625 29.4848 19.7506 29.4945 19.9967 29.4945C20.1643 29.4945 20.2585 29.5236 20.2585 29.606C20.2585 29.7175 20.1224 29.7465 19.9077 29.7465C18.9127 29.7465 18.3 29.7029 18.012 29.7029C17.8758 29.7029 17.1584 29.7465 16.3571 29.7465C16.1581 29.7465 16.022 29.732 16.022 29.606C16.022 29.5187 16.1162 29.4945 16.2681 29.4945C16.4671 29.4945 16.7394 29.48 16.9541 29.4218C17.3521 29.3103 17.415 28.8984 17.4307 27.6673L17.5668 19.2825C17.5668 19.0014 17.614 18.7979 17.7658 18.7979C17.9334 18.7979 18.0748 18.982 18.3366 19.2389C18.5147 19.4231 20.8451 21.7301 23.0759 23.7851C24.118 24.7496 26.1813 26.7901 26.4432 27.013H26.5165L26.3646 20.6541C26.3489 19.7914 26.2128 19.52 25.8462 19.3795C25.6158 19.2922 25.2492 19.2922 25.0345 19.2922C24.8512 19.2922 24.7884 19.2486 24.7884 19.1662C24.7884 19.0499 24.9559 19.0402 25.1864 19.0402C25.9823 19.0402 26.7155 19.0838 27.0349 19.0838C27.2078 19.0838 27.789 19.0402 28.5379 19.0402C28.7369 19.0402 28.8888 19.0499 28.8888 19.1662C28.8888 19.2534 28.7997 19.2922 28.6112 19.2922C28.4593 19.2922 28.3337 19.2922 28.1504 19.3358C27.721 19.4473 27.6005 19.7478 27.5848 20.5378L27.4172 29.4751C27.4172 29.7853 27.3596 29.9113 27.2182 29.9113C27.0507 29.9113 26.8674 29.7562 26.6998 29.6011C25.7362 28.7481 23.7777 26.8967 22.1857 25.4378C20.5151 23.9063 18.8184 22.1372 18.5461 21.8707H18.499L18.6666 27.8224Z" fill="white"/>
<path d="M32.8009 23.1456C32.8009 20.9936 32.8009 20.5962 32.7695 20.1455C32.7381 19.6656 32.5862 19.4233 32.2511 19.3506C32.0835 19.307 31.8845 19.2924 31.7012 19.2924C31.5493 19.2924 31.4551 19.2634 31.4551 19.1519C31.4551 19.0695 31.5808 19.0404 31.8217 19.0404C32.4029 19.0404 33.3665 19.084 33.8116 19.084C34.1939 19.084 35.0999 19.0404 35.6812 19.0404C35.8749 19.0404 36.0006 19.0695 36.0006 19.1519C36.0006 19.2682 35.9116 19.2924 35.7597 19.2924C35.6078 19.2924 35.4874 19.307 35.2989 19.3361C34.8852 19.4088 34.7647 19.6511 34.7333 20.1455C34.7019 20.5962 34.7019 20.9936 34.7019 23.1456V25.6416C34.7019 27.0132 34.7019 28.1328 34.7647 28.7435C34.8066 29.1264 34.9166 29.3784 35.3722 29.4366C35.5869 29.4656 35.922 29.4947 36.1525 29.4947C36.32 29.4947 36.3986 29.5383 36.3986 29.6062C36.3986 29.7031 36.2782 29.7468 36.1106 29.7468C35.0999 29.7468 34.1363 29.7031 33.7226 29.7031C33.3717 29.7031 32.4082 29.7468 31.7955 29.7468C31.6017 29.7468 31.4917 29.7031 31.4917 29.6062C31.4917 29.5335 31.5546 29.4947 31.7326 29.4947C31.963 29.4947 32.1463 29.4656 32.2825 29.4366C32.5862 29.3784 32.6805 29.1409 32.7276 28.729C32.8009 28.1328 32.8009 27.0181 32.8009 25.6416V23.1456V23.1456Z" fill="white"/>
<path d="M39.5249 20.4266C39.174 19.6462 38.9174 19.4911 38.3623 19.3506C38.1319 19.2924 37.891 19.2924 37.7653 19.2924C37.6292 19.2924 37.582 19.2488 37.582 19.1664C37.582 19.0501 37.7548 19.0404 37.98 19.0404C38.7917 19.0404 39.661 19.084 40.2004 19.084C40.5827 19.084 41.3211 19.0404 42.0804 19.0404C42.2637 19.0404 42.4313 19.0695 42.4313 19.1664C42.4313 19.2634 42.3423 19.2924 42.2009 19.2924C41.9547 19.2924 41.7243 19.307 41.6039 19.3894C41.4991 19.4621 41.452 19.559 41.452 19.6899C41.452 19.874 41.5882 20.2715 41.8029 20.7804L44.437 27.2119H44.4946C45.1544 25.6561 47.1444 21.0954 47.5109 20.16C47.5895 19.9758 47.6471 19.7626 47.6471 19.6365C47.6471 19.5251 47.5895 19.4088 47.4481 19.3651C47.2648 19.307 47.0344 19.2924 46.8354 19.2924C46.6992 19.2924 46.5736 19.2779 46.5736 19.181C46.5736 19.0695 46.7097 19.0404 47.003 19.0404C47.7675 19.0404 48.4064 19.084 48.6107 19.084C48.8725 19.084 49.5899 19.0404 50.0508 19.0404C50.2498 19.0404 50.3702 19.0695 50.3702 19.1664C50.3702 19.2634 50.2812 19.2924 50.1293 19.2924C49.9775 19.2924 49.6528 19.2924 49.3752 19.4621C49.1762 19.5881 48.951 19.8304 48.5373 20.7367C47.9403 22.0696 47.5267 22.8305 46.6992 24.5753C45.72 26.6449 45.0025 28.1861 44.6674 28.8937C44.2694 29.7128 44.1751 29.9406 43.9657 29.9406C43.7667 29.9406 43.6724 29.7419 43.3844 29.0779L39.5249 20.4266Z" fill="white"/>
<path d="M52.8045 23.1453C52.8045 20.9934 52.8045 20.5959 52.7731 20.1452C52.7416 19.6654 52.6212 19.4376 52.1132 19.3358C51.9928 19.3067 51.7309 19.2922 51.5162 19.2922C51.3434 19.2922 51.2544 19.2631 51.2544 19.1662C51.2544 19.0692 51.3644 19.0401 51.5896 19.0401C52.4013 19.0401 53.3648 19.0838 53.7942 19.0838C54.2865 19.0838 57.3291 19.0838 57.6171 19.0692C57.9103 19.0401 58.1512 19.0111 58.2769 18.982C58.3554 18.9674 58.4445 18.9238 58.523 18.9238C58.6016 18.9238 58.6173 18.982 58.6173 19.0547C58.6173 19.1516 58.5387 19.3213 58.4916 19.9756C58.4759 20.1161 58.4445 20.7413 58.4183 20.911C58.4026 20.9837 58.3712 21.0661 58.2664 21.0661C58.1565 21.0661 58.1303 20.9934 58.1303 20.8674C58.1303 20.7704 58.1146 20.5281 58.0413 20.3584C57.9313 20.1064 57.7794 19.9368 57.0148 19.8495C56.753 19.8205 55.1453 19.7914 54.8416 19.7914C54.763 19.7914 54.7369 19.835 54.7369 19.9319V23.5136C54.7369 23.6106 54.7526 23.6687 54.8416 23.6687C55.1767 23.6687 56.9415 23.6687 57.2872 23.6397C57.659 23.6106 57.8841 23.567 58.0255 23.4264C58.1303 23.3101 58.1931 23.2422 58.2717 23.2422C58.3293 23.2422 58.3764 23.2713 58.3764 23.3586C58.3764 23.4409 58.3031 23.6687 58.2559 24.3909C58.2245 24.6769 58.1931 25.2439 58.1931 25.3408C58.1931 25.4523 58.1931 25.6074 58.0517 25.6074C57.947 25.6074 57.9156 25.5541 57.9156 25.4814C57.8998 25.336 57.8999 25.1567 57.8527 24.9725C57.7794 24.6914 57.5647 24.4781 56.9991 24.42C56.7111 24.3909 55.1924 24.3764 54.8259 24.3764C54.7473 24.3764 54.7369 24.4345 54.7369 24.5169V25.6365C54.7369 26.1163 54.7211 27.4201 54.7369 27.832C54.7683 28.8111 55.0092 29.0243 56.5697 29.0243C56.9677 29.0243 57.6118 29.0243 58.0098 28.8547C58.4078 28.6851 58.5911 28.3894 58.7011 27.8078C58.7325 27.6527 58.7639 27.5946 58.8687 27.5946C58.9891 27.5946 58.9891 27.706 58.9891 27.8514C58.9891 28.1762 58.8687 29.1407 58.7901 29.4266C58.6854 29.795 58.544 29.795 57.9679 29.795C55.6585 29.795 54.6321 29.7126 53.7261 29.7126C53.3753 29.7126 52.4065 29.7562 51.799 29.7562C51.6 29.7562 51.4953 29.7126 51.4953 29.6156C51.4953 29.5429 51.5581 29.5042 51.7414 29.5042C51.9718 29.5042 52.1551 29.4751 52.2913 29.446C52.595 29.3878 52.6736 29.0776 52.7364 28.6657C52.815 28.0695 52.815 26.95 52.815 25.651V23.1453H52.8045Z" fill="white"/>
<path d="M65.1216 24.2651C65.1216 24.4202 65.153 24.4784 65.263 24.522C65.5824 24.619 66.0432 24.6626 66.4255 24.6626C67.0382 24.6626 67.2372 24.6044 67.5095 24.4202C67.9704 24.11 68.4103 23.4557 68.4103 22.2925C68.4103 20.2812 66.9702 19.6996 66.0694 19.6996C65.6871 19.6996 65.4096 19.7141 65.2577 19.7577C65.1478 19.7868 65.1163 19.845 65.1163 19.9564V24.2651H65.1216ZM63.3149 23.1456C63.3149 20.9936 63.3149 20.5962 63.2834 20.1455C63.2573 19.6656 63.1316 19.4378 62.6288 19.3361C62.5084 19.307 62.2466 19.2924 62.0319 19.2924C61.8643 19.2924 61.77 19.2634 61.77 19.1664C61.77 19.0695 61.8747 19.0404 62.1052 19.0404C62.9169 19.0404 63.8804 19.084 64.1999 19.084C64.7236 19.084 65.8861 19.0404 66.3627 19.0404C67.3263 19.0404 68.3527 19.1276 69.1801 19.6511C69.6043 19.9177 70.217 20.6398 70.217 21.5898C70.217 22.6367 69.7404 23.6011 68.1956 24.7595C69.5571 26.3444 70.615 27.6045 71.5157 28.4866C72.3745 29.3106 73.0029 29.4075 73.2281 29.4511C73.3957 29.4802 73.5318 29.4947 73.6575 29.4947C73.778 29.4947 73.8408 29.5383 73.8408 29.6062C73.8408 29.7177 73.7308 29.7468 73.5476 29.7468H72.097C71.2434 29.7468 70.8559 29.6741 70.4579 29.4802C69.8033 29.1506 69.222 28.4866 68.3631 27.3961C67.7504 26.6158 67.0487 25.6513 66.8497 25.4429C66.7711 25.3605 66.6821 25.346 66.5721 25.346L65.242 25.3169C65.1635 25.3169 65.1163 25.346 65.1163 25.4332V25.6319C65.1163 26.9502 65.1163 28.0698 65.1949 28.6611C65.242 29.0731 65.331 29.3833 65.7919 29.4414C66.0223 29.4705 66.3574 29.4996 66.5407 29.4996C66.6612 29.4996 66.724 29.5432 66.724 29.611C66.724 29.708 66.6141 29.7516 66.4203 29.7516C65.5353 29.7516 64.3989 29.708 64.1685 29.708C63.8752 29.708 62.9116 29.7516 62.3042 29.7516C62.1052 29.7516 62.0004 29.708 62.0004 29.611C62.0004 29.5383 62.0633 29.4996 62.2413 29.4996C62.4717 29.4996 62.655 29.4705 62.7912 29.4414C63.0949 29.3833 63.1735 29.0731 63.2363 28.6611C63.3149 28.065 63.3149 26.9454 63.3149 25.6465V23.1456Z" fill="white"/>
<path d="M74.9623 29.5769C74.7162 29.48 74.6743 29.4073 74.6743 29.0971C74.6743 28.3168 74.7319 27.4686 74.7476 27.2408C74.7633 27.0275 74.8105 26.8724 74.9309 26.8724C75.0671 26.8724 75.0828 26.9985 75.0828 27.1148C75.0828 27.2989 75.1456 27.5946 75.2189 27.8369C75.5541 28.8838 76.4601 29.2667 77.4079 29.2667C78.7852 29.2667 79.4607 28.404 79.4607 27.6528C79.4607 26.9597 79.2303 26.2957 77.963 25.3893L77.2561 24.8804C75.5751 23.6639 74.9938 22.6704 74.9938 21.5217C74.9938 19.9659 76.4025 18.8463 78.5286 18.8463C79.5236 18.8463 80.1625 18.9869 80.5605 19.0886C80.6966 19.1177 80.7751 19.1613 80.7751 19.2583C80.7751 19.4425 80.7123 19.8544 80.7123 20.9595C80.7123 21.2697 80.6652 21.386 80.5447 21.386C80.4348 21.386 80.3929 21.2987 80.3929 21.1291C80.3929 21.0031 80.3143 20.562 79.9949 20.1937C79.7645 19.9223 79.3193 19.5006 78.3296 19.5006C77.1932 19.5006 76.5072 20.1113 76.5072 20.9595C76.5072 21.6089 76.8633 22.1081 78.1306 22.9999L78.56 23.2956C80.3981 24.6139 81.0684 25.5638 81.0684 26.9064C81.0684 27.7303 80.7333 28.7045 79.6283 29.3733C78.8637 29.8241 78.0049 29.9549 77.1932 29.9549C76.3082 29.9452 75.6222 29.8483 74.9623 29.5769Z" fill="white"/>
<path d="M85.3888 23.1456C85.3888 20.9936 85.3888 20.5962 85.3574 20.1455C85.326 19.6656 85.1741 19.4233 84.8337 19.3506C84.6661 19.307 84.4671 19.2924 84.2839 19.2924C84.132 19.2924 84.043 19.2634 84.043 19.1519C84.043 19.0695 84.1634 19.0404 84.4095 19.0404C84.9908 19.0404 85.9544 19.084 86.3995 19.084C86.7818 19.084 87.6877 19.0404 88.269 19.0404C88.468 19.0404 88.5884 19.0695 88.5884 19.1519C88.5884 19.2682 88.4994 19.2924 88.3423 19.2924C88.1905 19.2924 88.0648 19.307 87.8867 19.3361C87.473 19.4088 87.3526 19.6511 87.3212 20.1455C87.2897 20.5962 87.2897 20.9936 87.2897 23.1456V25.6416C87.2897 27.0132 87.2897 28.1328 87.3526 28.7435C87.3997 29.1264 87.5044 29.3784 87.9653 29.4366C88.18 29.4656 88.5151 29.4947 88.7455 29.4947C88.9131 29.4947 88.9917 29.5383 88.9917 29.6062C88.9917 29.7031 88.8712 29.7468 88.6984 29.7468C87.6877 29.7468 86.7242 29.7031 86.3105 29.7031C85.9596 29.7031 84.9961 29.7468 84.3834 29.7468C84.1844 29.7468 84.0796 29.7031 84.0796 29.6062C84.0796 29.5335 84.1425 29.4947 84.3258 29.4947C84.5562 29.4947 84.7395 29.4656 84.8756 29.4366C85.1793 29.3784 85.2736 29.1409 85.3207 28.729C85.3993 28.1328 85.3993 27.0181 85.3993 25.6416V23.1456H85.3888Z" fill="white"/>
<path d="M95.8464 19.8303L93.5632 19.8884C92.6782 19.9175 92.3064 19.9854 92.0812 20.3004C91.9293 20.5137 91.8508 20.6833 91.8194 20.7948C91.7879 20.9062 91.7408 20.9644 91.6518 20.9644C91.5418 20.9644 91.5156 20.8917 91.5156 20.7366C91.5156 20.5088 91.8089 19.2196 91.8351 19.1081C91.8822 18.9239 91.9241 18.8416 92.0184 18.8416C92.1388 18.8416 92.2959 18.9821 92.6782 19.0112C93.1233 19.0548 93.7046 19.0839 94.2073 19.0839H100.266C101.246 19.0839 101.612 18.9433 101.738 18.9433C101.848 18.9433 101.858 19.0306 101.858 19.239C101.858 19.5395 101.811 20.5137 101.811 20.882C101.801 21.0226 101.764 21.1098 101.675 21.1098C101.549 21.1098 101.523 21.042 101.507 20.8287L101.497 20.6736C101.465 20.3053 101.052 19.9078 99.6902 19.8787L97.7631 19.8351V25.6415C97.7631 26.9452 97.7631 28.0648 97.8417 28.6706C97.8888 29.0681 97.983 29.3783 98.4386 29.4364C98.6533 29.4655 98.9885 29.4946 99.2189 29.4946C99.3865 29.4946 99.465 29.5382 99.465 29.6061C99.465 29.703 99.3394 29.7466 99.1718 29.7466C98.1611 29.7466 97.1975 29.703 96.7681 29.703C96.4172 29.703 95.4537 29.7466 94.841 29.7466C94.642 29.7466 94.532 29.703 94.532 29.6061C94.532 29.5334 94.5949 29.4946 94.7781 29.4946C95.0086 29.4946 95.1918 29.4655 95.328 29.4364C95.637 29.3783 95.726 29.0681 95.7731 28.6561C95.8517 28.06 95.8517 26.9404 95.8517 25.6415V19.8303H95.8464Z" fill="white"/>
<path d="M108.53 26.0777C108.53 25.3119 108.378 25.0017 108.179 24.5897C108.074 24.3619 106.021 21.2503 105.487 20.5088C105.105 19.9854 104.722 19.6315 104.429 19.4716C104.23 19.3747 103.968 19.2874 103.785 19.2874C103.665 19.2874 103.555 19.2583 103.555 19.1614C103.555 19.0742 103.659 19.0354 103.843 19.0354C104.12 19.0354 105.267 19.079 105.77 19.079C106.095 19.079 106.723 19.0354 107.409 19.0354C107.561 19.0354 107.639 19.079 107.639 19.1614C107.639 19.2487 107.535 19.2583 107.304 19.3165C107.168 19.3456 107.09 19.4571 107.09 19.5734C107.09 19.6849 107.168 19.8593 107.273 20.0532C107.488 20.4797 109.629 23.8918 109.875 24.2892C110.027 23.95 111.96 20.8335 112.169 20.3925C112.321 20.0823 112.384 19.84 112.384 19.6558C112.384 19.5104 112.321 19.3553 112.064 19.302C111.923 19.2729 111.787 19.2438 111.787 19.1614C111.787 19.0596 111.86 19.0354 112.049 19.0354C112.551 19.0354 113.044 19.079 113.489 19.079C113.824 19.079 114.835 19.0354 115.128 19.0354C115.296 19.0354 115.4 19.0645 115.4 19.1469C115.4 19.2487 115.28 19.2874 115.112 19.2874C114.96 19.2874 114.667 19.3456 114.437 19.4571C114.117 19.5976 113.95 19.7721 113.609 20.155C113.107 20.7221 110.965 24.0469 110.687 24.6576C110.457 25.1665 110.457 25.6075 110.457 26.0728V27.236C110.457 27.459 110.457 28.0551 110.504 28.6512C110.535 29.0584 110.671 29.3734 111.132 29.4267C111.347 29.4558 111.682 29.4849 111.897 29.4849C112.064 29.4849 112.138 29.5285 112.138 29.5964C112.138 29.6933 112.017 29.7369 111.818 29.7369C110.855 29.7369 109.891 29.6933 109.477 29.6933C109.095 29.6933 108.132 29.7369 107.566 29.7369C107.351 29.7369 107.231 29.7078 107.231 29.5964C107.231 29.5237 107.304 29.4849 107.477 29.4849C107.692 29.4849 107.875 29.4558 108.011 29.4267C108.32 29.3686 108.456 29.0584 108.488 28.6512C108.535 28.0551 108.535 27.459 108.535 27.236V26.0777H108.53Z" fill="white"/>
</svg>
