<svg width="112" height="41" viewBox="0 0 112 41" fill="none" xmlns="http://www.w3.org/2000/svg">
<path d="M20.5304 11.3369C20.5304 12.9595 20.0166 14.1677 19.0172 14.9708C18.2536 15.5949 17.2825 15.9151 16.1017 15.9151L14.8525 15.8445V6.82697L16.1017 6.74455C17.2825 6.74455 18.3102 7.10487 19.1139 7.82552C20.0567 8.65921 20.5304 9.83909 20.5304 11.3369ZM15.3923 3.76304L11.2275 4.08097V18.534L15.463 18.8967C18.4186 18.8967 20.6812 18.1336 22.2651 16.6075C23.6533 15.2887 24.3486 13.5412 24.3486 11.3369C24.3486 8.93711 23.5567 7.06483 21.9893 5.71774C20.4338 4.40126 18.2394 3.76304 15.3923 3.76304ZM26.7787 9.32569C25.8759 10.4208 25.4046 11.7514 25.4046 13.3481C25.4046 15.0815 25.9584 16.4285 27.0709 17.4247C28.1645 18.4115 29.5693 18.8967 31.304 18.8967L33.7599 18.6188L35.0374 18.1901L34.4835 15.6914C33.5808 15.9834 32.6922 16.1483 31.8861 16.1483C31.0801 16.1483 30.4296 16.0117 29.9157 15.7621C29.6493 15.6299 29.4182 15.4361 29.2416 15.197C29.0649 14.9578 28.9478 14.6801 28.8999 14.3867H35.5913C35.6738 13.9981 35.7303 13.5412 35.7303 12.9855C35.7303 11.4052 35.3273 10.1405 34.5636 9.18439C33.7199 8.10341 32.4141 7.54998 30.7336 7.54998C29.0837 7.54998 27.7639 8.14581 26.7787 9.32569ZM30.6794 10.0887C31.2616 10.0887 31.7212 10.3242 32.0535 10.7811C32.2963 11.1251 32.4227 11.5378 32.4141 11.9586H28.8598C28.8515 11.4827 29.0261 11.0217 29.3477 10.6704C29.5119 10.4799 29.7168 10.3287 29.9473 10.2281C30.1778 10.1274 30.428 10.0798 30.6794 10.0887ZM78.5041 9.2833C77.6014 10.3643 77.1725 11.7114 77.1725 13.3481C77.1725 15.0815 77.7263 16.4285 78.853 17.4247C79.8924 18.4092 81.3089 18.8967 83.0742 18.8967L85.5443 18.6188L86.7935 18.1619L86.2655 15.6914C85.2921 15.9834 84.4319 16.1483 83.6682 16.1483C82.8338 16.1483 82.1668 16.0093 81.6554 15.7597C81.3878 15.6317 81.1564 15.4392 80.9819 15.1995C80.8074 14.9598 80.6954 14.6805 80.656 14.3867H87.3757L87.4865 12.9855C87.4865 11.4052 87.1117 10.1405 86.3504 9.18439C85.476 8.10341 84.1985 7.54762 82.518 7.54762C80.8493 7.54998 79.5035 8.13168 78.5041 9.2833ZM82.4473 10.0887C83.0436 10.0887 83.4891 10.3242 83.779 10.7811C84.0504 11.1135 84.1978 11.5297 84.1962 11.9586H80.5877C80.5877 11.4735 80.7527 11.0449 81.0732 10.6704C81.2463 10.4797 81.4589 10.3289 81.6962 10.2285C81.9335 10.128 82.1898 10.0803 82.4473 10.0887ZM37.3283 18.647H40.951V3.41685H37.3283V18.647ZM43.9372 9.45051C43.0628 10.5056 42.6173 11.8079 42.6173 13.3081C42.6173 14.9449 43.1594 16.3179 44.213 17.3588C45.2547 18.3997 46.6029 18.899 48.2386 18.899C49.7942 18.899 51.0858 18.4421 52.1252 17.4977C53.3343 16.4592 53.9306 15.0155 53.9306 13.1432C53.9306 11.7137 53.5135 10.4938 52.7074 9.46699C51.708 8.21881 50.2797 7.59472 48.4342 7.59472C46.4638 7.59237 44.979 8.2141 43.9372 9.45051ZM48.2952 10.2818C48.9221 10.2818 49.4218 10.5998 49.7683 11.2521C50.044 11.7797 50.1855 12.432 50.1855 13.2351C50.1855 14.1371 50.0323 14.8577 49.6858 15.3853C49.3393 15.9411 48.8656 16.2166 48.2975 16.2166C47.6871 16.2166 47.2016 15.9411 46.8551 15.3853C46.5086 14.8577 46.3271 14.1371 46.3271 13.2351C46.3271 12.432 46.4921 11.7514 46.7844 11.2239C47.1309 10.6021 47.6164 10.2818 48.2952 10.2818ZM58.7482 3.49927C58.4018 3.15073 57.9162 3 57.3341 3C57.0564 2.98935 56.7796 3.03685 56.5215 3.13947C56.2633 3.24208 56.0295 3.39753 55.8351 3.59583C55.4966 3.95065 55.312 4.42459 55.3212 4.91466C55.3212 5.49636 55.531 5.98151 55.934 6.34183C56.3086 6.67134 56.7953 6.84495 57.294 6.82697H57.3364C57.9469 6.82697 58.4324 6.64563 58.8213 6.2594C59.1624 5.89581 59.3469 5.41289 59.3351 4.91466C59.3433 4.65065 59.2952 4.38792 59.194 4.14389C59.0929 3.89987 58.9409 3.68014 58.7482 3.49927ZM55.5287 18.647H59.123V7.79961H55.5287V18.647ZM67.8838 7.79961H65.5245V4.94293L61.9843 5.91321V7.79961H60.5961V10.5056H61.9843V14.9307C61.9843 17.5802 63.2194 18.899 65.6494 18.899C66.3847 18.899 67.106 18.7883 67.8154 18.5387L67.8013 15.6938L66.941 15.8751C65.9982 15.8751 65.5245 15.3617 65.5245 14.349V10.5056H67.8838V7.79961ZM70.3845 5.91321V7.79961H68.9821V10.5056H70.3845V14.9307C70.3845 17.5802 71.6195 18.899 74.0495 18.899L76.2014 18.5387L76.1731 15.6938L75.3411 15.8728C74.3983 15.8728 73.9105 15.3594 73.9105 14.3467V10.5056H76.2698V7.79961H73.9105V4.94293L70.3845 5.91321ZM94.2202 27.3442C93.3599 26.2468 92.0966 25.6934 90.402 25.6934C88.7073 25.6934 87.3898 26.2751 86.4188 27.4267C85.516 28.5218 85.0871 29.8547 85.0871 31.4491C85.0871 33.1824 85.641 34.5554 86.7252 35.5705C87.807 36.5125 89.2235 37 90.9582 37L93.4165 36.7221L94.6798 36.3052L94.1236 33.7948C93.3004 34.1179 92.4248 34.2872 91.5404 34.294C90.7225 34.294 90.0555 34.1551 89.57 33.8631C89.306 33.7358 89.0763 33.5474 88.9 33.3135C88.7237 33.0796 88.6059 32.8069 88.5565 32.5183H95.262L95.3728 31.0888C95.3728 29.5368 94.9839 28.2886 94.2202 27.3442ZM90.3619 28.218C90.9299 28.218 91.4013 28.4535 91.6936 28.8821C91.9456 29.2339 92.077 29.6577 92.0683 30.0902H88.4858C88.4715 29.6177 88.6356 29.157 88.9454 28.7997C89.1252 28.6059 89.345 28.4535 89.5896 28.3531C89.8342 28.2527 90.0977 28.2066 90.3619 28.218ZM43.6874 25.6934C41.7429 25.6934 40.258 26.3174 39.2186 27.5656C38.3725 28.6066 37.927 29.9113 37.927 31.4373C37.927 33.1024 38.455 34.433 39.4967 35.4739C40.5361 36.5031 41.856 37 43.5082 37C45.0497 37 46.3672 36.5408 47.409 35.6411C48.6181 34.5719 49.2144 33.1165 49.2144 31.2442C49.2144 29.8147 48.7972 28.5948 47.9911 27.5656C46.9894 26.3174 45.5611 25.6934 43.6874 25.6934ZM45.4645 31.3408C45.4645 32.2428 45.283 32.9634 44.9365 33.491C44.5901 34.0467 44.1446 34.3246 43.5766 34.3246C42.9921 34.3246 42.5065 34.0467 42.1318 33.491C41.7853 32.9634 41.6321 32.271 41.6321 31.369C41.6321 30.5495 41.7712 29.8854 42.0493 29.3578C42.3958 28.7055 42.8954 28.3852 43.5766 28.3852C44.2153 28.3852 44.7009 28.7055 45.0332 29.3578C45.3254 29.9113 45.4645 30.5754 45.4645 31.3408ZM50.8643 25.9289V32.2828C50.8643 34.0868 51.3215 35.3891 52.2666 36.1663C52.9195 36.7197 53.7256 37 54.7226 37C56.0684 37 57.1243 36.5125 57.9422 35.5422L58.0529 36.7504H61.2183L61.1335 33.2131V25.9289H57.4991V32.3087C57.5174 32.7399 57.3688 33.1616 57.0842 33.4862C56.9496 33.6577 56.7763 33.795 56.5785 33.8867C56.3806 33.9783 56.1638 34.0219 55.9458 34.0138C55.7467 34.0222 55.5483 33.9855 55.3654 33.9064C55.1826 33.8272 55.02 33.7078 54.8899 33.5569C54.6138 33.2161 54.4706 32.7869 54.4869 32.3487V25.9289H50.8643Z" fill="white"/>
<path d="M39.73 21.977H28.2776V25.0692H32.1359V36.7503H35.7726V25.0692H39.73V21.977ZM73.2834 21.214V36.7503H76.906V30.4388C76.906 29.996 77.0333 29.6051 77.2525 29.2871C77.3848 29.0904 77.5655 28.931 77.7772 28.8242C77.989 28.7174 78.2247 28.6668 78.4616 28.6772C79.461 28.6772 79.9465 29.3272 79.9465 30.6177V36.7503H83.5715V30.3281C83.5715 28.8444 83.225 27.6928 82.5297 26.8756C81.865 26.0984 80.9341 25.6957 79.7391 25.6957C79.0155 25.6957 78.365 25.8605 77.7946 26.1808L76.906 26.8332V21.214H73.2834ZM66.5661 31.3667C66.5661 32.2686 66.8442 32.961 67.3863 33.4603C67.8719 33.9313 68.5106 34.1527 69.3002 34.1527L71.2022 33.7641L71.6901 36.4418C70.7351 36.798 69.7255 36.986 68.7062 36.9976C66.9008 36.9976 65.456 36.4983 64.4024 35.4715C63.3607 34.4588 62.8186 33.1 62.8186 31.3667C62.8186 29.6333 63.3607 28.2603 64.4024 27.2453C65.456 26.2044 66.9008 25.691 68.7062 25.691C69.7197 25.691 70.7191 25.8864 71.6901 26.2303L71.2022 28.9362C70.5975 28.6929 69.9521 28.5658 69.3002 28.5618C68.5082 28.5618 67.8719 28.7973 67.3863 29.2283C66.8442 29.744 66.5661 30.467 66.5661 31.3667ZM20.5303 22.6694C19.6983 21.977 18.6282 21.6308 17.3083 21.6308C15.8777 21.6308 14.711 22.0477 13.8366 22.879C13.0329 23.6114 12.618 24.4993 12.618 25.4861C12.618 26.1667 12.7689 26.7625 13.0753 27.3466L13.9356 28.6089C13.0328 29.0234 12.3116 29.565 11.7978 30.2292C11.2699 30.9522 11.02 31.7552 11.02 32.6855C11.02 33.863 11.4372 34.8498 12.2692 35.6411C13.2426 36.5407 14.6026 37 16.3797 37L18.7249 36.6538C19.4202 36.4442 19.9882 36.1545 20.4737 35.78L21.4047 36.7503H25.7368L23.031 33.6982C24.3509 32.311 25.2253 30.4105 25.6401 28.0107H22.2367C22.1771 28.6615 22.028 29.3011 21.7936 29.9112C21.5438 30.5777 21.2939 31.0888 21.03 31.4514L18.7956 28.9833C20.7801 28.2203 21.7795 26.9721 21.7795 25.2647C21.7795 24.2238 21.3623 23.3618 20.5303 22.6694ZM17.3083 24.0565C17.4746 24.0487 17.6407 24.0754 17.7961 24.135C17.9515 24.1945 18.0928 24.2857 18.2111 24.4027C18.4468 24.6806 18.5575 25.0268 18.5575 25.4154C18.5575 26.1785 18.072 26.8025 17.0986 27.3183C16.3774 26.6518 16.0285 25.9712 16.0285 25.333C16.0285 24.9868 16.1534 24.7089 16.375 24.4451C16.4908 24.3208 16.6314 24.222 16.7876 24.1551C16.9439 24.0882 17.1124 24.0546 17.2824 24.0565H17.3083ZM14.81 31.1029L15.477 30.3964L18.6282 33.7382C18.1851 34.0867 17.6572 34.254 16.9902 34.254C16.2407 34.254 15.6443 34.0467 15.1989 33.6299C14.9947 33.4385 14.8335 33.2061 14.7258 32.9479C14.6182 32.6897 14.5665 32.4116 14.5743 32.132C14.5743 31.7293 14.645 31.409 14.81 31.1029Z" fill="white"/>
</svg>
