<svg width="140" height="41" viewBox="0 0 140 41" fill="none" xmlns="http://www.w3.org/2000/svg">
<path d="M22.635 30.5986C22.635 30.2481 22.3871 29.9883 21.8823 29.8872V29.6604C22.1615 29.6604 23.0951 29.6955 23.3586 29.6955C23.5864 29.6955 24.4887 29.6604 24.7701 29.6604V29.8872C24.3011 29.9718 24.0532 30.2274 24.0532 30.5986V35.0484C24.0532 36.4567 24.8908 37.2547 26.644 37.2547C28.1538 37.2547 29.3308 36.6278 29.3308 35.1535V30.5821C29.3308 30.2522 29.1052 29.9903 28.5402 29.8893V29.6625C28.7456 29.6625 29.5184 29.6975 29.7797 29.6975C30.0053 29.6975 30.8138 29.6625 31.0215 29.6625V29.8893C30.4743 30.0089 30.2331 30.2357 30.2331 30.5821V34.9081C30.2331 36.8505 29.0092 37.9661 26.3693 37.9661C23.9103 37.9661 22.6372 36.9351 22.6372 35.1102V30.5986H22.635Z" fill="white"/>
<path d="M33.1802 37.6155C33.7519 37.5166 33.9775 37.2506 33.9775 36.9227V30.7718C33.9775 30.2501 33.676 30.0151 33.1646 29.8872V29.6604C33.4549 29.681 33.9418 29.6913 34.1897 29.6913C34.4153 29.6913 34.7659 29.6872 35.0027 29.6604L40.7805 35.933V30.5821C40.7805 30.2522 40.5527 29.9903 39.9899 29.8872V29.6604C40.1976 29.6604 40.9413 29.6955 41.2049 29.6955C41.4349 29.6955 42.2323 29.6604 42.4422 29.6604V29.8872C41.8905 30.0068 41.6248 30.2357 41.6248 30.5821V37.9661H41.2764C41.0575 37.9186 40.6421 37.7021 40.0122 37.0629L34.8419 31.5038V36.9248C34.8419 37.2547 35.0473 37.5166 35.6124 37.6176V37.8444C35.4047 37.8444 34.6609 37.8073 34.3974 37.8073C34.1696 37.8073 33.3901 37.8444 33.1802 37.8444V37.6155Z" fill="white"/>
<path d="M78.7777 35.9577H79.0212C79.1507 36.4175 79.4343 36.8361 79.8341 37.0773C80.2495 37.3475 80.9017 37.4774 81.4266 37.4774C82.5902 37.4774 83.325 36.9454 83.325 36.1041C83.325 35.2339 82.3802 34.7803 81.2501 34.2586C80.4081 33.871 78.7554 33.2276 78.7554 31.7533C78.7554 30.38 79.8899 29.5243 81.7057 29.5243C82.9029 29.5243 83.4657 29.7944 84.2742 29.7594L84.2586 31.4254H84.0129C83.689 30.4439 82.7242 30.1016 81.6655 30.1016C80.4818 30.1016 80.0396 30.7264 80.0396 31.3615C80.0396 32.2709 81.0044 32.7307 82.0966 33.1802C83.325 33.6854 84.6583 34.3225 84.6583 35.7453C84.6583 37.0918 83.5193 38.065 81.4355 38.065C80.1959 38.065 79.4522 37.7372 78.8 37.665L78.7777 35.9577Z" fill="white"/>
<path d="M104.956 34.1225V36.9062C104.956 37.1825 105.183 37.5289 105.697 37.6155V37.8424C105.411 37.8424 104.473 37.8052 104.203 37.8052C103.975 37.8052 103.077 37.8424 102.751 37.8424V37.6155C103.267 37.5289 103.515 37.1805 103.515 36.9062V34.2442L104.956 34.1225ZM103.609 34.4586L101.257 30.9739C100.855 30.3615 100.549 30.0398 100.1 29.8872V29.6604C100.422 29.6604 101.293 29.6955 101.541 29.6955C101.764 29.6955 102.704 29.6604 103.044 29.6604V29.8872C102.742 29.9367 102.602 30.0749 102.602 30.2852C102.602 30.4708 102.738 30.7079 102.874 30.9141C103.008 31.1182 104.609 33.5699 104.609 33.5699L106.28 30.9161C106.45 30.6502 106.568 30.3862 106.568 30.213C106.568 30.0542 106.448 29.9243 106.162 29.8893V29.6625C106.445 29.6625 107.039 29.6975 107.229 29.6975C107.419 29.6975 108.102 29.6625 108.382 29.6625V29.8728C107.738 30.1161 107.339 30.6357 106.948 31.2399L104.808 34.5391" fill="white"/>
<path d="M59.8914 29.6605H65.4079C65.5777 29.6605 65.877 29.6419 66.0489 29.5739H66.2946L66.2566 31.2296H66.0132C65.8033 30.7079 65.5844 30.2914 64.5168 30.2914H62.1226V33.1761H63.9696C64.2399 33.1761 64.5659 33.1555 64.7066 33.1246C65.1221 33.04 65.3052 32.8277 65.3878 32.5019H65.6335C65.6156 32.7514 65.6156 33.3205 65.6156 33.4896C65.6156 33.6586 65.6335 34.2587 65.6335 34.5288H65.3878C65.2695 34.203 65.1087 33.9556 64.7066 33.8648C64.5659 33.8298 64.2332 33.803 63.9696 33.803H62.1226V37.1867H64.7267C65.8636 37.1867 66.1941 36.7496 66.4777 36.1289L66.7212 36.1825L66.4777 37.8816C65.6313 37.8115 65.1243 37.8115 64.1639 37.8115H61.4101C61.1443 37.8115 60.1706 37.8465 59.8892 37.8465V37.6197C60.385 37.5331 60.6753 37.3063 60.6753 36.865V30.609C60.6753 30.2213 60.4497 29.978 59.8914 29.8935V29.6605Z" fill="white"/>
<path d="M45.8011 30.6503C45.8011 30.2297 45.5309 29.9987 44.9993 29.8936V29.6688C45.2964 29.6688 46.2523 29.7039 46.5314 29.7039C46.7659 29.7039 47.7487 29.6688 48.0479 29.6688V29.8936C47.5186 29.9987 47.2417 30.2091 47.2417 30.6503V36.8631C47.2417 37.2837 47.5141 37.5106 48.0479 37.6157V37.8425C47.7487 37.8425 46.8061 37.8075 46.5314 37.8075C46.2947 37.8075 45.2941 37.8425 44.9971 37.8425V37.6157C45.5398 37.5229 45.8011 37.3023 45.8011 36.8631V30.6503Z" fill="white"/>
<path d="M87.6531 30.6503C87.6531 30.2297 87.3784 29.9987 86.8491 29.8936V29.6688C87.1439 29.6688 88.1043 29.7039 88.3812 29.7039C88.618 29.7039 89.6007 29.6688 89.9 29.6688V29.8936C89.3706 29.9987 89.0959 30.2091 89.0959 30.6503V36.8631C89.0959 37.2837 89.3684 37.5106 89.9 37.6157V37.8425C89.6029 37.8425 88.6604 37.8075 88.3812 37.8075C88.1467 37.8075 87.1462 37.8425 86.8491 37.8425V37.6157C87.3918 37.5229 87.6531 37.3023 87.6531 36.8631V30.6503Z" fill="white"/>
<path d="M95.3212 29.6955C92.2972 29.6955 91.8125 29.6439 91.1938 29.6089L91.1983 31.2956H91.444C91.6696 30.5471 92.1207 30.3739 92.7037 30.3739H94.5998V36.865C94.5998 37.3042 94.3407 37.5228 93.7958 37.6176V37.8444C94.0951 37.8444 95.1024 37.8094 95.3346 37.8094C95.6116 37.8094 96.5585 37.8444 96.8534 37.8444V37.6176C96.3196 37.5145 96.0471 37.2856 96.0471 36.865V30.3739H97.9299C98.5351 30.3739 98.9684 30.5636 99.194 31.2956H99.4374L99.4419 29.6089C98.83 29.6439 98.3475 29.6955 95.3212 29.6955Z" fill="white"/>
<path d="M71.1891 33.5286C71.4705 33.5637 71.8859 33.5802 72.2969 33.5802C73.9563 33.5802 74.4789 32.6997 74.4789 31.9182C74.4789 30.8151 73.6816 30.1305 72.2276 30.1305C71.9261 30.1305 71.4906 30.1655 71.1891 30.2171V33.5286ZM71.1891 36.8649C71.1891 37.2856 71.4772 37.5124 72.011 37.6175V37.8444C71.7162 37.8444 70.7469 37.8093 70.4722 37.8093C70.2354 37.8093 69.2907 37.8444 68.9937 37.8444V37.6175C69.4895 37.5309 69.7798 37.3041 69.7798 36.8649V30.5882C69.7798 30.2027 69.552 29.9593 68.9959 29.8727V29.648C69.2907 29.648 70.2265 29.683 70.4923 29.683C70.9256 29.683 72.1562 29.615 72.6408 29.615C74.7603 29.615 75.9418 30.4233 75.9418 31.811C75.9418 32.9018 75.0641 33.64 73.7106 33.941C73.7106 33.941 74.0188 34.106 74.3271 34.438C74.7 34.8442 75.7095 36.1824 76.1294 36.6505C76.5471 37.1185 77.0831 37.6423 77.6571 37.667V37.8505C77.3824 37.9062 76.9402 37.9536 76.6051 37.9536C75.886 37.9536 75.3098 37.7186 74.7514 37.0959C74.269 36.5536 73.4493 35.4277 72.9669 34.8586C72.6587 34.4957 72.2835 34.2132 71.6 34.1101C71.4683 34.0895 71.3432 34.0709 71.1936 34.0565V36.8649H71.1891Z" fill="white"/>
<path d="M50.1748 30.6768C49.9805 30.2809 49.6857 29.9922 49.1787 29.8891V29.6582C49.4936 29.6582 50.5835 29.6953 50.8225 29.6953C51.0436 29.6953 51.9951 29.6582 52.3189 29.6582V29.883C52.0308 29.9345 51.7047 30.0809 51.7047 30.351C51.7047 30.5449 51.832 30.8088 52.0755 31.3057L54.3603 36.104L56.5222 31.2975C56.692 30.9098 56.817 30.6088 56.817 30.3799C56.817 30.1263 56.5647 29.951 56.2051 29.883V29.6582C56.4932 29.6582 57.1967 29.6953 57.4156 29.6953C57.6166 29.6953 58.443 29.6582 58.7579 29.6582V29.8891C58.2196 30.0232 57.8891 30.2974 57.5876 30.9469L54.4072 37.8711H53.688L50.1748 30.6768Z" fill="white"/>
<path d="M58.3316 8.83861C57.9631 8.09011 57.4002 7.54369 56.4443 7.3478V6.91272C57.0384 6.91272 59.0128 6.9787 59.4662 6.9787C59.8838 6.9787 61.7956 6.91272 62.4054 6.91272V7.33749C61.8649 7.4344 61.244 7.71277 61.244 8.22826C61.244 8.59117 61.4874 9.09224 61.943 10.0325L66.2759 19.1238L70.3742 10.016C70.6936 9.27781 70.9326 8.71489 70.9326 8.27981C70.9326 7.79525 70.4479 7.46739 69.769 7.33749V6.91272C70.3117 6.91272 71.6294 6.9787 72.0493 6.9787C72.4312 6.9787 73.9969 6.91272 74.591 6.91272V7.32512C73.5703 7.5808 72.9449 8.1231 72.3754 9.35205L66.3496 22.4786H64.985L58.3316 8.83861Z" fill="white"/>
<path d="M0 21.9755C0.786167 21.8106 1.34006 21.4786 1.34006 20.6559V8.62214C1.34006 7.8324 0.826369 7.50454 0 7.30659V6.87976C0.413184 6.87976 2.19323 6.94368 2.62651 6.94368C3.12457 6.94368 4.99171 6.87976 5.40043 6.87976V7.30659C4.61426 7.47155 4.03134 7.80147 4.03134 8.62214V13.6493H13.7423V8.62214C13.7423 7.79941 13.2241 7.47155 12.4045 7.30659V6.87976C12.8154 6.87976 14.6468 6.94368 15.1449 6.94368C15.5737 6.94368 17.3962 6.87976 17.8027 6.87976V7.30659C17.0165 7.47155 16.4336 7.80147 16.4336 8.62214V20.6559C16.4336 21.4456 16.9808 21.7776 17.8027 21.9755V22.3694C17.3962 22.3694 15.5759 22.3364 15.1449 22.3364C14.6468 22.3364 12.8154 22.3694 12.4045 22.3694V21.9755C13.1862 21.8106 13.7423 21.4786 13.7423 20.6559V14.9689H4.03134V20.6559C4.03134 21.4786 4.57853 21.7776 5.40043 21.9755V22.3694C4.98948 22.3694 3.12457 22.3364 2.62651 22.3364C2.19323 22.3364 0.413184 22.3694 0 22.3694V21.9755Z" fill="white"/>
<path d="M116.577 21.1837C117.184 21.2847 118.31 21.3487 119.196 21.3487C124.215 21.3487 126.826 18.5609 126.826 14.672C126.826 10.6408 124.07 7.80349 119.377 7.80349C118.419 7.80349 117.22 7.86948 116.577 7.96639V21.1837ZM112.324 21.9755C113.331 21.8105 113.888 21.4394 113.888 20.5899V8.6221C113.888 7.79731 113.34 7.47151 112.367 7.30655V6.87972C112.927 6.87972 114.754 6.94365 115.259 6.94365C116.076 6.94365 118.352 6.77869 120.126 6.77869C126.1 6.77869 129.725 9.85929 129.725 14.5421C129.725 19.0949 125.95 22.4663 119.793 22.4663C118.017 22.4663 115.911 22.3364 115.087 22.3364C114.587 22.3364 112.883 22.4023 112.324 22.4023V21.9755Z" fill="white"/>
<path d="M44.7087 14.237C45.2402 14.3009 46.0264 14.3339 46.8059 14.3339C49.9483 14.3339 50.9355 12.6637 50.9355 11.1894C50.9355 9.09442 49.4257 7.80362 46.6718 7.80362C46.1046 7.80362 45.2782 7.86961 44.7087 7.96652V14.237ZM44.7087 20.5487C44.7087 21.3467 45.2559 21.7798 46.2631 21.9777V22.4045C45.7025 22.4045 43.8756 22.3386 43.3485 22.3386C42.904 22.3386 41.1128 22.4045 40.5522 22.4045V21.9777C41.4881 21.8127 42.0375 21.3818 42.0375 20.5487V8.66553C42.0375 7.93353 41.6087 7.47164 40.5545 7.30668V6.87985C41.1151 6.87985 42.8862 6.94377 43.3842 6.94377C44.2061 6.94377 46.5356 6.81799 47.4535 6.81799C51.4715 6.81799 53.7072 8.35211 53.7072 10.975C53.7072 13.0431 52.0388 14.435 49.477 15.0103C49.477 15.0103 50.0577 15.3216 50.6429 15.9526C51.3509 16.7217 53.3074 19.3074 54.1002 20.192C54.8909 21.0787 55.9049 22.0684 56.9903 22.1138V22.4623C56.4699 22.5654 55.6391 22.654 55.0026 22.654C53.6335 22.654 52.5458 22.2107 51.4871 21.0271C50.5759 20.0003 48.979 17.8166 48.0655 16.7382C47.4826 16.0516 46.7768 15.5175 45.4859 15.3196C45.2313 15.2804 44.9923 15.2494 44.7109 15.2185V20.5487H44.7087Z" fill="white"/>
<path d="M97.6566 14.237C98.1949 14.3009 98.9766 14.3339 99.756 14.3339C102.898 14.3339 103.883 12.6637 103.883 11.1894C103.883 9.09442 102.371 7.80362 99.6243 7.80362C99.0525 7.80362 98.2306 7.86961 97.6566 7.96652V14.237ZM97.6566 20.5487C97.6566 21.3467 98.206 21.7798 99.2133 21.9777V22.4045C98.6527 22.4045 96.828 22.3386 96.3032 22.3386C95.852 22.3386 94.0653 22.4045 93.5024 22.4045V21.9777C94.436 21.8127 94.9877 21.3818 94.9877 20.5487V8.66553C94.9877 7.93353 94.5566 7.47164 93.5047 7.30668V6.87985C94.0675 6.87985 95.8319 6.94377 96.3344 6.94377C97.1586 6.94377 99.4858 6.81799 100.399 6.81799C104.424 6.81799 106.653 8.35211 106.653 10.975C106.653 13.0431 104.989 14.435 102.425 15.0103C102.425 15.0103 103.008 15.3216 103.589 15.9526C104.306 16.7217 106.26 19.3074 107.048 20.192C107.841 21.0787 108.857 22.0684 109.936 22.1138V22.4623C109.422 22.5654 108.587 22.654 107.957 22.654C106.584 22.654 105.491 22.2107 104.437 21.0271C103.526 20.0003 101.934 17.8166 101.013 16.7382C100.431 16.0516 99.727 15.5175 98.4383 15.3196C98.1792 15.2804 97.9425 15.2494 97.6589 15.2185V20.5487H97.6566Z" fill="white"/>
<path d="M31.0642 16.1753L28.3908 10.4224L25.9005 16.1753H31.0642ZM20.3572 21.9736C21.4203 21.7447 22.0032 21.1096 22.3918 20.258L27.7699 8.31089C27.9977 7.81601 28.2657 6.80151 28.2657 6.80151H29.7711C29.7711 6.80151 30.0413 7.82013 30.2647 8.31501L35.9487 20.291C36.353 21.1158 36.793 21.7117 37.9231 21.9736L37.9209 22.3716C37.3044 22.3716 35.3926 22.3386 34.9571 22.3386C34.5238 22.3386 32.6969 22.3716 32.0827 22.3716L32.0849 21.9736C32.9113 21.7859 33.1726 21.3983 33.1726 21.021C33.1726 20.7013 33.0297 20.3405 32.8554 19.9673L31.6315 17.3939H25.369L24.25 19.9817C24.125 20.2745 23.9753 20.689 23.9753 20.9694C23.9753 21.4004 24.2188 21.7447 25.1591 21.9736L25.1568 22.3716C24.6007 22.3716 23.1333 22.3386 22.7894 22.3386L20.3572 22.3716V21.9736Z" fill="white"/>
<path d="M84.3467 16.1753L81.6711 10.4224L79.183 16.1753H84.3467ZM73.6396 21.9736C74.7028 21.7447 75.2879 21.1096 75.6721 20.258L81.0524 8.31089C81.2802 7.81601 81.5505 6.80151 81.5505 6.80151H83.0558C83.0558 6.80151 83.3216 7.82013 83.5449 8.31501L89.2312 20.291C89.6332 21.1158 90.0755 21.7117 91.2011 21.9736L91.1989 22.3716C90.5847 22.3716 88.6706 22.3386 88.2329 22.3386C87.8041 22.3386 85.9771 22.3716 85.3629 22.3716V21.9736C86.196 21.7859 86.4528 21.3983 86.4528 21.021C86.4528 20.7013 86.3121 20.3405 86.1402 19.9673L84.914 17.3939H78.6515L77.5303 19.9817C77.4052 20.2745 77.2578 20.689 77.2578 20.9694C77.2578 21.4004 77.5012 21.7447 78.4415 21.9736V22.3716C77.8832 22.3716 76.418 22.3386 76.0719 22.3386L73.6396 22.3716V21.9736Z" fill="white"/>
</svg>
