<svg width="168" height="41" viewBox="0 0 168 41" fill="none" xmlns="http://www.w3.org/2000/svg">
<path d="M50.2874 25.1951C40.5345 27.7056 31.13 31.5603 21.8526 36.949C21.7549 37.0093 21.7256 37.1329 21.7907 37.2263C21.8526 37.3197 21.9959 37.3378 22.0968 37.2775C30.2703 33.462 39.9809 30.3337 50.2906 28.1878V25.1951H50.2874Z" fill="white"/>
<path d="M92.9694 37.1208H96.9747L81.9302 6H80.9239L66.4688 37.1389H69.0348L80.4908 9.96319L92.9694 37.1208Z" fill="white"/>
<path d="M54.4623 19.5111V29.8998H51.1148V19.9692L41.8242 6.63904H45.4779L53.1923 18.7908L61.1803 6.63904H63.6682L54.4623 19.5111Z" fill="white"/>
<path d="M24.6628 29.8996V18.1788H10.2825V29.8996H7V6.62378H10.2825V16.6056H24.6628V6.62378H27.9485V29.8996H24.6628Z" fill="white"/>
<path d="M120.554 8.18503V6.62085H100.511V8.18503H108.899V29.8906H112.208V8.18503H120.554Z" fill="white"/>
<path d="M149.624 8.18503V6.62085H131.212V8.18503H138.784V29.8906H142.092V8.18503H149.624Z" fill="white"/>
<path d="M113.044 28.8298C121.687 30.9184 129.711 33.7424 136.754 37.0365C136.849 37.0938 136.982 37.0727 137.048 36.9853C137.109 36.9009 137.083 36.7803 136.986 36.7231C129.037 32.1089 121.202 28.5737 113.044 26.0752V28.8298Z" fill="white"/>
<path d="M92.2399 25.4483C97.6585 25.9094 102.957 26.687 108.076 27.7237V24.6918C102.452 23.2844 96.6425 22.3531 90.5107 21.8829L92.2399 25.4483Z" fill="white"/>
<path d="M72.6978 21.7563C66.7386 22.1029 60.9487 22.8534 55.2891 24.0288V27.2265C60.47 26.3253 65.7617 25.6713 71.0501 25.3036L72.6978 21.7563Z" fill="white"/>
<path d="M75.0068 25.0837C76.9607 25.0023 78.9113 24.9601 80.8521 24.9601C82.7506 24.9601 84.6393 25.0023 86.5215 25.0837L84.9486 21.5877C83.594 21.5455 82.2198 21.5214 80.8293 21.5214C79.3737 21.5214 77.9311 21.5425 76.4983 21.5877L75.0068 25.0837Z" fill="white"/>
</svg>
