<svg width="121" height="41" viewBox="0 0 121 41" fill="none" xmlns="http://www.w3.org/2000/svg">
<path fill-rule="evenodd" clip-rule="evenodd" d="M108.89 18.3049L112.575 14.8205C112.79 14.5628 112.897 14.3836 112.897 14.2323C112.897 13.9746 112.65 13.8738 111.867 13.8738H110.938V11.6722H121V13.8738H119.679C118.149 13.8738 117.865 14.0811 115.735 16.4563L109.907 22.0358V25.4418C109.907 26.3101 110.407 26.6182 111.823 26.6182H114.022V28.7414H99.9277V26.6182H102.127C103.549 26.6182 104.042 26.3101 104.042 25.4418V22.0358L97.1847 15.3023C96.0471 14.1259 96.2051 13.8682 93.0449 13.8682V11.6666H105.793V13.8682H104.883C103.96 13.8682 103.568 14.0194 103.568 14.3276C103.568 14.5852 103.853 14.7869 104.03 14.9942L107.506 18.3497C107.917 18.7307 108.422 18.7811 108.89 18.3049Z" fill="white"/>
<path fill-rule="evenodd" clip-rule="evenodd" d="M23.3642 11.6667H26.4358V17.812H23.598C23.3452 16.5852 22.4793 16.1034 21.6893 15.4592C20.2609 14.2996 17.1765 13.3305 14.5726 13.3305C11.2165 13.3305 8.39128 14.2548 8.39128 15.6105C8.39128 19.375 27.5672 16.3779 27.5672 23.4924C27.5672 27.2065 23.459 29.2792 16.0831 29.2792C13.5297 29.2792 9.66166 28.579 7.38634 27.5034C6.67214 27.1393 6.36877 27.8507 6.23604 28.7414H3.08219V22.3944H5.93266C6.55838 24.0078 7.43058 24.3383 8.22695 24.9825C9.6111 26.1085 12.904 26.9264 15.9188 26.904C20.4694 26.8648 22.0369 25.9853 22.0369 24.7024C22.0369 23.4252 20.4884 23.1171 15.5017 22.4224L11.267 21.8062C6.48885 21.1676 3.00635 20.2209 3.00635 16.8429C3.00635 13.3361 7.4053 11.1345 14.364 11.1345C17.2966 11.1345 19.7489 11.4818 22.1064 12.6639C22.7637 13.0336 23.3768 13.0784 23.3642 11.6667Z" fill="white"/>
<path fill-rule="evenodd" clip-rule="evenodd" d="M83.3751 21.9519L83.4383 15.1231C83.4383 14.2268 82.9137 13.9187 81.4095 13.9187H79.6461V11.7955H90.8773V13.9187H89.411C87.9068 13.9187 87.3822 14.2268 87.3822 15.1231V28.8703L82.9832 28.8422L68.7436 16.8933V25.5707C68.7436 26.439 69.2682 26.7751 70.7724 26.7751H72.7254V28.8759H61.0645V26.7751H62.9985C64.5027 26.7751 65.0273 26.4446 65.0273 25.5707V15.1287C65.0273 14.2324 64.5027 13.9243 62.9985 13.9243H61.0645V11.8011H71.1516L83.3751 21.9519Z" fill="white"/>
<path fill-rule="evenodd" clip-rule="evenodd" d="M45.7505 11C36.8009 11 31.1948 14.5068 31.1948 20.1368C31.1948 25.6659 36.7188 29.1447 45.4787 29.1447C54.7758 29.1447 60.186 25.7163 60.186 19.8511C60.1923 14.5852 54.3524 11 45.7505 11ZM45.5482 26.9263C40.5931 26.9263 37.7426 24.3943 37.7426 20.0135C37.7426 15.7392 40.7132 13.2072 45.7947 13.2072C50.6676 13.2072 53.5118 15.7953 53.5118 20.1928C53.5181 24.4951 50.6297 26.9263 45.5482 26.9263Z" fill="white"/>
</svg>
