<svg width="106" height="43" viewBox="0 0 106 43" fill="none" xmlns="http://www.w3.org/2000/svg">
<path d="M6.97365 13.8731C7.64376 15.4016 7.81054 16.0438 8.17092 16.0438C8.43449 16.0438 8.60128 15.9322 8.76955 15.4898L11.4515 9.33054C11.523 9.1748 11.6198 9.1748 11.6674 9.1748C11.7389 9.1748 11.7865 9.26301 11.8357 9.37464L14.4685 15.2017C14.8036 15.9102 14.8989 16.0425 15.1148 16.0425C15.4737 16.0425 15.6658 15.6221 15.8087 15.3106L21.9619 1.88402C22.7511 0.133687 23.3497 0.731834 23.3497 0.245323C23.3497 0.00137805 23.2291 0.00137799 23.0623 0.00137799C22.5113 0.00137799 21.7936 0.0895839 21.0743 0.0895839C20.4995 0.0895839 19.9485 0.00137799 19.399 0.00137799C19.2323 0.00137799 19.1355 0.157117 19.1355 0.333529C19.1355 0.777315 20.6916 0.621576 20.6916 1.57393C20.6916 1.83992 20.644 2.06181 20.5233 2.30438L16.1661 12.2303C15.9502 12.7182 15.8072 13.0504 15.639 13.0504C15.4945 13.0504 15.3516 12.8726 15.1118 12.3626L13.1015 7.77591C12.957 7.44376 12.7902 6.93382 12.7902 6.7133C12.7902 6.51346 12.8141 6.31362 13.0062 5.87121L14.7053 2.23685C15.7834 -0.0895841 16.3567 0.752507 16.3567 0.132309C16.3567 0.0661544 16.2614 0 16.1885 0C15.7804 0 15.4945 0.0882059 14.4402 0.0882059C13.913 0.0882059 13.4112 0 12.884 0C12.7411 0 12.4045 9.85779e-08 12.4045 0.199842C12.4045 0.687731 13.8163 0.554044 13.7924 1.50777C13.7924 1.72966 13.6733 2.08387 13.5765 2.30576L12.4031 4.89819C12.2601 5.20829 12.1395 5.45223 12.068 5.45223C12.0203 5.45223 11.9489 5.29649 11.7568 4.87614L10.5118 1.95156C10.3927 1.68556 10.3436 1.55325 10.3436 1.28726C10.3436 0.555422 11.3249 0.622954 11.3249 0.267374C11.3249 0.135065 11.2773 0.00137799 11.1805 0.00137799C10.6533 0.00137799 10.007 0.0895839 8.8589 0.0895839C8.52384 0.0895839 7.2551 0.00137799 6.44054 0.00137799C6.22461 0.00137799 6.08165 0.0234295 6.08165 0.245323C6.08165 0.999208 7.75694 0.20122 8.40322 1.66351L10.7978 7.00411C10.9169 7.29215 11.0375 7.55815 11.0375 7.69046C11.0375 7.82277 10.9422 8.15492 10.7501 8.59871L8.97803 12.4977C8.88272 12.7416 8.7621 12.8974 8.64297 12.8974C8.49853 12.8974 8.33174 12.5652 8.23644 12.3213L3.68711 1.90745C3.59181 1.70899 3.54415 1.4871 3.54415 1.35341C3.54415 0.599525 4.57315 0.599525 4.57315 0.267374C4.57315 0.111635 4.5255 0.00137799 4.38105 0.00137799C3.80624 0.00137799 3.23292 0.0895839 2.65811 0.0895839C1.96417 0.0895839 1.24492 0.00137799 0.550979 0.00137799C0.311228 0.00137799 0 0.0895839 0 0.35558C0 0.799366 1.14961 0.511319 1.72293 1.81787L6.97365 13.8731Z" fill="white"/>
<path fill-rule="evenodd" clip-rule="evenodd" d="M27.4552 9.99615C28.0062 9.99615 28.2683 10.0182 28.2683 9.61989C28.2683 8.7337 26.9757 6.09717 24.0317 6.09717C21.0385 6.09717 19.3394 8.4677 19.3394 11.3041C19.3394 12.7664 20.5843 15.8467 24.1746 15.8467C26.3294 15.8467 28.4113 14.2507 28.4113 13.7408C28.4113 13.6746 28.4113 13.5864 28.316 13.5864C27.7888 13.5864 26.9995 14.7386 24.94 14.7386C23.4792 14.7386 21.0861 13.6539 21.0861 9.99753H27.4552V9.99615ZM21.0861 9.398C21.0861 8.17966 22.139 6.60573 23.6236 6.60573C24.94 6.60573 26.2803 7.71382 26.2803 8.95422C26.2803 9.28637 26.1373 9.398 25.8023 9.398H21.0861Z" fill="white"/>
<path d="M32.313 11.5025C33.2706 11.9243 34.4917 12.2785 34.4917 13.4527C34.4917 14.6049 33.5342 15.2692 32.3607 15.2692C29.7755 15.2692 30.0376 12.3446 29.512 12.3446C29.1531 12.3446 29.2246 13.0544 29.2246 13.4307C29.2246 15.181 29.2245 15.2031 29.7517 15.2031C30.3265 15.2031 30.7569 15.8453 32.4322 15.8453C34.2043 15.8453 35.6636 14.4712 35.6636 12.8105C35.6636 11.3923 35.0412 10.7059 33.6771 10.1739C31.1634 9.24364 30.541 8.7778 30.541 8.04735C30.541 7.1391 31.2826 6.62916 32.2177 6.62916C34.3964 6.62916 34.6123 8.55729 34.8506 8.55729C35.2094 8.55729 35.1141 8.29129 35.1141 7.69314C35.1141 7.53741 35.138 6.7849 34.995 6.60711C34.7076 6.27496 33.0561 6.09717 32.6481 6.09717C30.8998 6.09717 29.4166 6.98336 29.4166 8.75575C29.4166 10.3283 31.0205 10.9044 32.313 11.5025Z" fill="white"/>
<path fill-rule="evenodd" clip-rule="evenodd" d="M37.287 13.2749C37.287 15.5573 38.867 15.8453 39.969 15.8453C41.6443 15.8453 42.9368 15.0914 42.9368 14.7593C42.9368 14.5829 42.8415 14.5594 42.7447 14.5594C42.3382 14.5594 41.9793 15.0694 40.7106 15.0694C39.753 15.0694 39.0829 14.6476 39.0353 13.7394V7.29209H42.1476L42.4737 6.48308C42.5452 6.37282 42.2667 6.38385 41.6681 6.38385H39.0353C39.0353 4.78925 39.0591 4.32341 38.7241 4.32341C38.532 4.32341 38.3354 4.19662 38.2416 4.88435C38.0405 6.35766 36.7465 6.93238 36.7316 7.10604C36.8582 6.98751 36.2893 7.34171 37.287 7.29347V13.2749Z" fill="white"/>
<path d="M49.2554 14.6478C49.4714 15.1136 49.7588 16.0439 50.1415 16.0439C50.5004 16.0439 50.6686 15.3121 50.9307 14.7594L56.8918 1.70904C57.5619 0.2247 58.232 0.778745 58.232 0.290855C58.232 0.0923919 58.0875 0.00280762 57.8255 0.00280762C57.4904 0.00280762 57.1315 0.0910136 55.9819 0.0910136C55.4547 0.0910136 54.9291 0.00280762 54.4019 0.00280762C54.1622 0.00280762 54.043 0.0689622 54.043 0.290855C54.043 0.800797 55.5754 0.379061 55.5754 1.39894C55.6707 1.86478 55.3833 2.57319 55.2403 2.90534L51.0752 12.4109C50.9561 12.6769 50.8846 13.0311 50.6448 13.0311C50.3812 13.0311 50.213 12.5212 49.6873 11.3469L45.4983 2.21898C45.403 2.01914 45.2824 1.66494 45.2824 1.35484C45.2824 0.556851 46.2876 0.5348 46.2638 0.224701C46.2638 0.0923919 46.0717 0.00280762 45.9287 0.00280762C45.5937 0.00280762 44.6838 0.0910136 44.0375 0.0910136C43.3182 0.0910136 42.5766 0.00280762 41.8351 0.00280762C41.6191 0.00280762 41.5 0.113065 41.5 0.312907C41.5 0.800797 42.7449 0.379061 43.3436 1.70904L49.2554 14.6478Z" fill="white"/>
<path d="M76.7371 2.88184C76.4497 2.88184 75.7319 3.81213 75.7319 4.05608C75.7319 4.30002 76.4497 5.20827 76.7371 5.20827C77.0484 5.20827 77.7423 4.32207 77.7423 4.05608C77.7423 3.79146 77.0484 2.88184 76.7371 2.88184Z" fill="white"/>
<path d="M93.1282 2.76331C92.8408 2.76331 92.123 3.6936 92.123 3.93755C92.123 4.18149 92.8408 5.08974 93.1282 5.08974C93.4409 5.08974 94.1348 4.20354 94.1348 3.93755C94.1333 3.67155 93.4394 2.76331 93.1282 2.76331Z" fill="white"/>
<path fill-rule="evenodd" clip-rule="evenodd" d="M101.935 13.4087C101.935 14.583 100.307 15.2045 99.4464 15.2045C98.1777 15.2045 97.4822 14.7166 97.4822 13.4542C97.4822 11.504 100.402 11.1498 101.935 10.8397V13.4087ZM101.935 10.3063C96.3341 11.1705 95.9261 12.5666 95.9261 13.7409C95.9261 15.3134 96.9551 15.8468 98.5112 15.8468C99.8515 15.8468 101.169 15.3589 102.175 14.5609C102.486 15.2914 103.108 15.691 104.042 15.691C104.377 15.691 105.43 15.6028 105.43 15.137C105.43 14.9826 105.239 14.9826 105.119 14.9826C105.023 14.9826 104.807 15.0267 104.712 15.0267C103.467 15.0267 103.683 13.7202 103.683 12.9663V8.37959C103.683 6.49695 101.384 6.09726 99.9006 6.09726C97.2425 6.03111 95.9037 7.5816 95.8784 8.60149C95.8784 8.99979 96.5962 9.33194 97.0042 9.33194C97.4584 9.33194 97.5299 9.15415 97.5299 8.91159C97.5299 8.66764 97.3869 8.33549 97.3869 8.00334C97.3869 6.78499 98.3206 6.67474 99.4688 6.67474C100.953 6.67474 101.935 7.4493 101.935 8.60149V10.3063Z" fill="white"/>
<path fill-rule="evenodd" clip-rule="evenodd" d="M59.8997 15.1811C59.6972 15.2004 58.1291 15.1728 58.1291 14.2274V6.27369C58.1291 6.0518 57.9847 5.91949 57.8417 5.91949C57.2907 5.91949 56.8127 6.62789 55.2804 7.02757C55.1612 7.04963 55.0645 7.13783 55.0645 7.27152C55.0645 7.73736 56.3809 7.16126 56.3809 8.48986V13.7188C56.3809 15.7352 55.3265 14.8931 55.3265 15.4471C55.3504 15.6676 55.4948 15.6911 55.6854 15.6911C55.949 15.6911 56.5715 15.6028 57.3369 15.6028C58.3183 15.6028 59.0599 15.6911 59.5632 15.6911C59.6659 15.6911 59.7583 15.6869 59.8312 15.6924C59.9087 15.6869 59.9087 15.6911 59.9921 15.6911C60.1589 15.6911 60.5907 15.6028 62.1945 15.6028C63.5348 15.6028 64.1096 15.6911 64.4446 15.6911C64.7082 15.6911 64.8273 15.647 64.8273 15.4471C64.8273 14.7373 62.6964 15.8013 62.6964 13.7409L62.7053 8.80548C62.7053 8.51743 64.6099 5.41368 67.5287 5.53221C68.3924 5.56804 68.2509 5.60525 68.8168 4.7797C69.061 4.42412 67.9427 4.4255 67.4423 4.46271C64.2257 4.70114 63.508 6.72988 62.7053 7.80213V7.75665L62.6964 6.27644C62.6964 6.05455 62.5534 5.92224 62.409 5.92224C61.858 5.92224 61.38 6.63065 59.5364 7.03033C59.4173 7.05238 59.2251 7.14059 59.2251 7.27428C59.2251 7.74011 60.9481 7.16402 60.9481 8.49262V14.2095C60.9511 14.9 60.1544 15.2197 59.8997 15.1811Z" fill="white"/>
<path d="M91.2166 15.159C90.9813 15.1563 89.4237 15.2445 89.4237 13.8952V10.2401C89.4237 8.55597 88.7297 6.09722 85.5206 6.09722C83.199 6.09722 82.0017 8.0033 82.0494 7.7373V6.27364C82.0494 6.05174 81.9064 5.91943 81.762 5.91943C81.211 5.91943 80.733 6.62784 78.745 7.02752C78.6258 7.04957 78.5305 7.13778 78.5305 7.27147C78.5305 7.7373 80.3011 7.16121 80.3011 8.48981V13.9848C80.3011 15.0074 79.4866 15.1439 79.1262 15.1328C78.9669 15.1039 77.5015 15.0997 77.5015 14.2287V6.27364C77.5015 6.05174 77.3571 5.91943 77.2141 5.91943C76.6631 5.91943 76.1851 6.62784 74.6528 7.02752C74.5322 7.04957 74.2358 7.79657 74.3773 7.78141C75.1606 7.69871 75.7533 7.16121 75.7533 8.48981V13.7188C75.7533 15.7351 74.6989 14.893 74.6989 15.4471C74.7228 15.6676 74.8672 15.691 75.0578 15.691C75.3214 15.691 75.9439 15.6028 76.7093 15.6028C77.6906 15.6028 78.4322 15.691 78.9356 15.691C78.9966 15.691 79.1053 15.6965 79.1545 15.6896C79.1932 15.6924 79.2677 15.691 79.3168 15.691C79.6042 15.691 80.0822 15.6028 81.351 15.6028C82.7404 15.6028 83.2169 15.691 83.6249 15.691C83.9853 15.691 84.1521 15.6469 84.1521 15.3809C84.1521 14.7828 82.0464 15.425 82.0464 13.8966V8.80129C82.0211 8.44709 82.861 7.073 84.8713 7.073C86.8102 7.073 87.6724 8.73513 87.6724 9.84184V13.9848C87.6724 15.425 86.6419 14.9826 86.6419 15.425C86.6419 15.6469 86.7611 15.691 87.0738 15.691C87.385 15.691 87.8883 15.6028 88.7967 15.6028C89.9702 15.6028 90.5688 15.691 90.8786 15.691C90.9947 15.691 91.0707 15.6924 91.1689 15.6896C91.2479 15.6938 91.3298 15.691 91.4281 15.691C91.6916 15.691 92.3141 15.6028 93.081 15.6028C94.0624 15.6028 94.804 15.691 95.3073 15.691C95.6185 15.691 95.7615 15.6249 95.7615 15.4471C95.7615 14.871 93.8703 15.3589 93.8703 14.2287V6.27364C93.8703 6.05174 93.7273 5.91943 93.5828 5.91943C93.0319 5.91943 92.5538 6.62784 91.023 7.02752C90.9024 7.04957 90.8071 7.13778 90.8071 7.27147C90.8071 7.7373 92.125 7.16121 92.125 8.48981V13.7188C92.128 15.2183 91.5249 15.1259 91.2166 15.159Z" fill="white"/>
<path d="M75.6901 7.033C75.5858 6.87175 75.3416 6.87175 75.2612 6.87175L75.2061 6.88002C74.4675 7.12396 73.8286 7.248 73.306 7.248C73.0096 7.248 72.7535 7.20528 72.5912 7.12534C72.3901 7.03162 72.2263 6.93791 72.0685 6.84556C71.522 6.5272 71.0499 6.25293 69.4773 6.25293C67.187 6.25293 65.4611 7.81307 65.4611 9.88178C65.4611 11.0105 66.0061 12.0428 66.8967 12.6286C66.5408 12.9387 65.7485 13.6774 65.7485 14.4451C65.7485 15.4126 66.1178 16.1017 66.7448 16.3263C67.2794 16.5992 68.3218 16.7577 69.9286 16.8101C72.5182 16.879 73.0736 16.9644 73.0736 17.7004C73.0736 18.0422 72.8905 19.7443 69.2629 19.7443C68.3471 19.7443 66.2161 19.5831 66.2161 18.0918C66.2161 17.5819 66.2563 17.535 66.5422 17.2001C66.6316 17.0954 66.648 16.9631 66.5869 16.8459C66.5169 16.7122 66.362 16.6295 66.1834 16.6295C66.1506 16.6295 66.1149 16.6323 66.0568 16.6447C65.6011 16.788 64.9116 17.0058 64.9116 18.056C64.9116 20.0324 67.6636 20.5547 69.12 20.5547C73.1273 20.5547 74.5494 18.7313 74.5494 17.1698C74.5494 15.0418 72.0625 15.0418 70.7282 15.0418C70.5451 15.0418 70.3604 15.0432 70.1817 15.046C70.009 15.0473 69.8377 15.0487 69.6724 15.0487C68.0165 15.0487 67.3896 14.7786 67.1543 14.5539C66.9979 14.4023 67.0039 14.2576 67.0098 14.135C67.0098 13.6939 67.5191 13.0668 67.9971 13.0668C68.0805 13.0668 68.149 13.0834 68.2533 13.1082C68.4781 13.1619 68.8162 13.2446 69.6486 13.2446C72.0461 13.2446 73.7855 11.7562 73.7855 9.70399C73.7855 9.34565 73.7289 8.95148 73.6038 8.46773C73.5591 8.37814 73.5174 8.29821 73.4802 8.22792C73.4504 8.17003 73.4176 8.10939 73.3923 8.05702C74.2069 7.97846 75.6097 7.67387 75.6558 7.42028C75.6975 7.34034 75.7839 7.17909 75.6901 7.033ZM69.6873 12.3957C68.0046 12.3957 67.4074 10.8645 67.4074 9.55376C67.4074 8.37952 67.7857 6.97925 69.5905 6.97925C71.2733 6.97925 71.8704 8.55731 71.8704 9.90934C71.8704 10.6563 71.6575 12.3957 69.6873 12.3957Z" fill="white"/>
<path d="M32.1483 22.5533C31.8609 22.5533 31.1416 23.4836 31.1416 23.7276C31.1416 23.9715 31.8594 24.8798 32.1483 24.8798C32.4595 24.8798 33.1535 23.9936 33.1535 23.7276C33.1535 23.463 32.4595 22.5533 32.1483 22.5533Z" fill="white"/>
<path d="M68.2933 22.5533C68.0059 22.5533 67.2881 23.4836 67.2881 23.7276C67.2881 23.9715 68.0059 24.8798 68.2933 24.8798C68.6045 24.8798 69.2985 23.9936 69.2985 23.7276C69.2985 23.463 68.6045 22.5533 68.2933 22.5533Z" fill="white"/>
<path fill-rule="evenodd" clip-rule="evenodd" d="M56.6326 35.7633C56.4852 35.7978 56.3408 36.1038 56.6565 36.2498C56.7488 36.2926 56.6088 36.2457 56.6818 36.2512C56.7592 36.2457 56.7592 36.2498 56.8411 36.2498C57.0094 36.2498 57.4398 36.1616 59.0436 36.1616C60.3838 36.1616 60.9586 36.2498 61.2937 36.2498C61.5573 36.2498 61.6764 36.2057 61.6764 36.0059C61.6764 35.2961 59.5454 36.3601 59.5454 34.2997L59.5544 29.3629C59.5544 29.0748 61.459 25.9711 64.3762 26.0896C65.2399 26.1241 65.0985 26.1627 65.6658 25.3357C65.9086 24.9802 64.7917 24.9815 64.2899 25.0187C61.0733 25.2572 60.3555 27.2873 59.5544 28.3582V28.3127L59.5454 26.8325C59.5454 26.6106 59.4025 26.4769 59.258 26.4769C58.707 26.4769 58.229 27.1867 56.3855 27.585C56.2648 27.607 56.0742 27.6966 56.0742 27.8289C56.0742 28.2948 57.7972 27.7187 57.7972 29.0473V34.7641C57.8002 35.4588 56.8933 35.671 56.6326 35.7633Z" fill="white"/>
<path fill-rule="evenodd" clip-rule="evenodd" d="M87.9057 28.416C88.3852 27.086 89.1983 27.64 89.1983 27.1315C89.1983 26.9537 89.03 26.8655 88.7426 26.8655C88.5029 26.8655 88.0725 26.9537 87.5215 26.9537C86.8514 26.9537 86.4687 26.8655 86.1813 26.8655C85.7494 26.8655 85.462 26.8875 85.462 27.1094C85.462 27.5973 86.9944 27.2652 86.9944 28.4615C86.9944 28.6172 86.9944 28.8157 86.707 29.6136C85.0883 34.4002 84.8634 34.6207 84.8634 34.6207L82.3021 28.5938L82.3512 28.5497C82.3989 28.7495 82.183 28.416 82.183 28.0618C82.183 27.1756 83.547 27.6194 83.547 27.1535C83.547 26.9096 83.4025 26.8655 83.0437 26.8655C82.661 26.8655 82.11 26.9537 81.2716 26.9537C80.6253 26.9537 80.0952 26.9054 79.5918 26.9054C79.2568 26.9054 79.2255 26.9344 79.1168 27.1301C78.4869 28.2575 80.0043 27.4939 80.2426 27.9501L83.3787 35.1072C83.5946 35.5731 83.8582 36.061 83.8582 36.5916C83.8582 38.3199 81.6022 42.132 77.9612 41.6786C77.8332 41.6634 77.5502 41.5876 77.4371 41.7254C77.5413 41.7516 77.1094 41.6234 77.857 42.6461C78.1235 42.8445 78.6269 42.9438 79.4876 42.7687C81.9477 42.2671 83.6215 39.9779 83.6453 39.9103C84.92 38.1627 87.9057 28.416 87.9057 28.416Z" fill="white"/>
<path d="M7.97321 22.3726C7.97321 20.778 9.57852 21.3982 9.57852 20.778C9.57852 20.512 8.93223 20.5561 8.81161 20.5561C8.06852 20.5561 7.30309 20.6443 6.53617 20.6443C5.88988 20.6443 5.29124 20.5561 4.66877 20.5561C4.54964 20.5561 4.1416 20.6222 4.1416 20.778C4.1416 21.4864 6.08049 20.9558 6.08049 22.2623V29.7295C6.08049 33.142 7.27776 36.3973 13.5739 36.3973C20.5402 36.3973 20.2528 30.9258 20.2528 29.8398V22.9721C20.2528 20.9337 21.666 21.4216 21.666 20.8C21.666 20.6677 21.4739 20.5561 21.3548 20.5561C20.9244 20.5561 20.494 20.6443 20.0384 20.6443C19.1047 20.6443 18.171 20.5561 17.2373 20.5561C17.1658 20.5561 16.999 20.6663 16.999 20.778C16.999 21.6201 19.2253 20.6898 19.2253 22.9487V30.1278C19.2253 32.7423 18.1948 35.4891 13.6946 35.4891C10.4631 35.4891 7.97321 33.871 7.97321 30.3263V22.3726Z" fill="white"/>
<path fill-rule="evenodd" clip-rule="evenodd" d="M55.2546 30.5495C55.8056 30.5495 56.0692 30.5715 56.0692 30.1732C56.0692 29.287 54.7766 26.6505 51.831 26.6505C48.8393 26.6505 47.1387 29.0211 47.1387 31.8574C47.1387 33.3197 48.3836 36.3987 51.974 36.3987C54.1288 36.3987 56.2106 34.8041 56.2106 34.2955C56.2106 34.228 56.2106 34.1398 56.1153 34.1398C55.5882 34.1398 54.7989 35.2919 52.7394 35.2919C51.2785 35.2919 48.8855 34.2059 48.8855 30.5509H55.2546V30.5495ZM48.8869 29.95C48.8869 28.7316 49.9413 27.1591 51.4245 27.1591C52.7409 27.1591 54.0826 28.2672 54.0826 29.5076C54.0826 29.8397 53.9382 29.95 53.6046 29.95H48.8869Z" fill="white"/>
<path d="M65.8457 32.0559C66.8033 32.4777 68.0244 32.8319 68.0244 34.0061C68.0244 35.1583 67.0669 35.824 65.8934 35.824C63.3083 35.824 63.5703 32.8994 63.0447 32.8994C62.6858 32.8994 62.7573 33.6078 62.7573 33.984C62.7573 35.7344 62.7573 35.7564 63.2844 35.7564C63.8592 35.7564 64.2896 36.3987 65.9664 36.3987C67.7385 36.3987 69.1978 35.026 69.1978 33.3639C69.1978 31.9457 68.5754 31.2593 67.2113 30.7273C64.6961 29.797 64.0752 29.3312 64.0752 28.5993C64.0752 27.6911 64.8167 27.1812 65.7504 27.1812C67.9291 27.1812 68.145 29.1093 68.3833 29.1093C68.7436 29.1093 68.6468 28.8433 68.6468 28.2451C68.6468 28.0894 68.6707 27.3369 68.5277 27.1591C68.2403 26.827 66.5888 26.6492 66.1823 26.6492C64.4355 26.6492 62.9509 27.5354 62.9509 29.3078C62.9479 30.8817 64.5517 31.4578 65.8457 32.0559Z" fill="white"/>
<path fill-rule="evenodd" clip-rule="evenodd" d="M75.3417 33.8282C75.3417 36.1106 76.9217 36.3972 78.0237 36.3972C79.699 36.3972 80.9916 35.6447 80.9916 35.3126C80.9916 35.1348 80.8963 35.1127 80.7995 35.1127C80.3929 35.1127 80.0325 35.6227 78.7653 35.6227C77.8077 35.6227 77.1376 35.2023 77.09 34.2941V27.8454H80.2023L80.5284 27.035C80.5999 26.9247 80.3215 26.9358 79.7228 26.9358H77.09C77.09 25.3412 77.1138 24.8753 76.7787 24.8753C76.5866 24.8753 76.3901 24.7485 76.2948 25.4349C76.0952 26.9082 74.8011 27.4829 74.7847 27.6566C74.9113 27.538 74.3439 27.8922 75.3402 27.844V33.8282H75.3417Z" fill="white"/>
<path d="M41.0333 28.9523C40.7503 28.2962 40.6327 27.9475 40.6327 27.8814C40.6327 27.2253 41.9789 27.5093 41.9789 27.0724C41.9789 26.8312 41.7659 26.8312 41.4354 26.8312C41.1524 26.8312 40.8442 26.9194 39.9715 26.9194C38.4124 26.9194 38.4124 26.8312 37.9641 26.8312C37.4921 26.8312 37.4683 26.9401 37.4683 27.093C37.4683 27.4858 38.3186 27.1592 38.7668 28.1419L42.3318 35.6807C42.4018 35.8337 42.4971 36.2044 42.8039 36.2044C43.1583 36.2044 43.1583 35.9426 43.6065 35.0467L47.2192 27.9668C47.5498 27.3108 48.4001 27.4431 48.4001 27.1592C48.4001 26.8532 47.9995 26.8312 47.7627 26.8312C47.3607 26.8312 46.9363 26.9194 46.5342 26.9194C46.0145 26.9194 45.5662 26.8312 45.0704 26.8312C44.7636 26.8312 44.5045 26.8532 44.5045 27.1151C44.5045 27.6622 45.9683 27.0489 45.9683 28.2742C45.9683 29.2568 45.3786 30.1747 44.9289 31.0485L43.3474 34.195L41.0333 28.9523Z" fill="white"/>
<path d="M33.8959 36.2471C33.9763 36.2512 34.0091 36.243 34.1133 36.243C34.3769 36.243 34.9994 36.1548 35.7648 36.1548C36.7476 36.1548 37.4892 36.243 37.991 36.243C38.3023 36.243 38.4467 36.1768 38.4467 35.999C38.4467 35.4229 36.5555 35.9108 36.5555 34.7807V26.827C36.5555 26.6051 36.4125 26.4728 36.2681 26.4728C35.7171 26.4728 35.2391 27.1826 33.7068 27.5809C33.5877 27.6029 33.4923 27.6925 33.4923 27.8248C33.4923 28.2906 34.8088 27.7146 34.8088 29.0432V34.2721C34.8088 35.7826 34.1908 35.6986 33.9227 35.7137C33.8378 35.7137 32.103 35.8102 32.103 34.4499V30.7949C32.103 29.1107 31.409 26.6519 28.2014 26.6519C25.8784 26.6519 24.6826 28.5566 24.7302 28.2906V26.827C24.7302 26.6051 24.5858 26.4728 24.4428 26.4728C23.8919 26.4728 23.4139 27.1826 21.4273 27.5809C21.3082 27.6029 21.2129 27.6925 21.2129 27.8248C21.2129 28.2906 22.9835 27.7146 22.9835 29.0432V34.5381C22.9835 35.9784 21.5703 35.5346 21.5703 35.9784C21.5703 36.2002 21.6909 36.2443 22.0021 36.2443C22.2895 36.2443 22.7675 36.1561 24.0363 36.1561C25.4257 36.1561 25.9037 36.2443 26.3117 36.2443C26.6706 36.2443 26.8389 36.2002 26.8389 35.9342C26.8389 35.3361 24.7332 35.9784 24.7332 34.4499V29.3533C24.7079 28.9991 25.5463 27.625 27.5581 27.625C29.497 27.625 30.3592 29.2871 30.3592 30.3938V34.5367C30.3592 35.977 29.3302 35.5332 29.3302 35.977C29.3302 36.1989 29.4493 36.243 29.7606 36.243C30.0718 36.243 30.5751 36.1548 31.485 36.1548C32.6584 36.1548 33.2556 36.243 33.5668 36.243C33.6666 36.243 33.811 36.2471 33.8959 36.2471Z" fill="white"/>
<path d="M71.0278 34.1812C71.0278 36.1975 69.975 35.3554 69.975 35.9081C69.9988 36.13 70.1432 36.152 70.3338 36.152C70.5974 36.152 71.2199 36.0638 71.9853 36.0638C72.9666 36.0638 73.7082 36.152 74.2116 36.152C74.5243 36.152 74.6672 36.0859 74.6672 35.9081C74.6672 35.332 72.776 35.8199 72.776 34.6897V26.736C72.776 26.5141 72.6316 26.3818 72.4886 26.3818C71.9376 26.3818 71.4582 27.0902 69.9273 27.4899C69.8067 27.512 69.7129 27.6002 69.7129 27.7339C69.7129 28.1997 71.0293 27.6236 71.0293 28.9522V34.1812H71.0278Z" fill="white"/>
<path d="M88.2766 36.8617C89.1686 36.8617 89.9295 36.2208 89.9295 35.3443C89.9295 34.4746 89.1686 33.8337 88.2766 33.8337C87.3757 33.8337 86.6147 34.4732 86.6147 35.3443C86.6147 36.2208 87.3772 36.8617 88.2766 36.8617ZM86.9453 35.3443C86.9453 34.6262 87.5291 34.086 88.2781 34.086C89.0182 34.086 89.6019 34.6262 89.6019 35.3443C89.6019 36.072 89.0182 36.6095 88.2781 36.6095C87.5291 36.6081 86.9453 36.072 86.9453 35.3443ZM87.9311 35.4642H88.2602L88.7576 36.2208H89.0777L88.5417 35.4518C88.8186 35.4187 89.0316 35.2822 89.0316 34.9708C89.0316 34.6262 88.8112 34.4732 88.3645 34.4732H87.6467V36.2194H87.9326V35.4642H87.9311ZM87.9311 35.2381V34.6979H88.3198C88.5178 34.6979 88.7308 34.7379 88.7308 34.9542C88.7308 35.223 88.5148 35.2381 88.2721 35.2381H87.9311Z" fill="white"/>
</svg>
