<svg width="400" height="400" viewBox="0 0 400 400" fill="none" xmlns="http://www.w3.org/2000/svg">
<path fill-rule="evenodd" clip-rule="evenodd" d="M187.305 30.2157V30.2135C187.309 23.7181 187.314 17.2162 187.279 10.7271C187.279 8.71855 187.531 6.82408 188.47 4.99809C190.439 1.27763 193.508 -0.365763 197.882 0.0679103C201.385 0.433109 204.66 3.28622 205.507 6.98385C205.851 8.44465 205.942 9.99674 205.942 11.5032C205.965 28.5306 205.965 45.5351 205.942 62.5625C205.942 63.7722 205.896 65.0047 205.713 66.1916C204.935 71.0077 201.248 74.2488 196.668 74.2488C191.974 74.2488 187.966 70.6653 187.348 65.8493C187.245 65.0622 187.258 64.2623 187.271 63.4592V63.4591C187.275 63.1909 187.279 62.9223 187.279 62.6538C187.302 54.026 187.302 45.3525 187.302 36.7019C187.302 34.541 187.304 32.3787 187.305 30.2157ZM83.4999 212.02C85.2173 275.77 138.023 325.665 200.561 325.482C265.068 325.688 319.316 272.574 317.622 205.606C316.042 142.29 263.557 90.6371 198.042 91.9153C134.474 93.1478 81.7137 145.805 83.4999 212.02ZM271.915 208.573C272.006 249.544 238.161 280.084 200.698 279.81C162.846 280.289 129.046 249.087 129.161 208.368C129.321 168.926 162.021 136.88 201.797 137.542C239.238 138.181 271.823 168.31 271.915 208.573ZM210.161 333.765H210.163C219.771 333.761 229.385 333.756 238.986 333.791C241.093 333.791 243.314 333.882 245.283 334.521C250.344 336.187 253.71 341.642 253.069 346.618C252.382 352.073 247.985 356.365 242.444 356.935C241.678 357.018 240.9 357.005 240.119 356.991C239.826 356.986 239.532 356.981 239.238 356.981H161.93C161.779 356.981 161.627 356.981 161.475 356.982H161.474C160.408 356.984 159.328 356.986 158.266 356.867C153.16 356.25 147.801 351.845 148.19 344.815C148.534 338.789 152.724 334.338 158.907 333.859C160.202 333.761 161.514 333.764 162.829 333.767L163.116 333.768C163.24 333.768 163.364 333.768 163.487 333.768H200.561C203.756 333.768 206.953 333.766 210.15 333.765H210.152H210.154H210.156H210.159H210.161ZM186.711 383.59H186.708H186.671C177.735 383.584 168.795 383.579 159.846 383.595C154.762 383.595 151.03 381.358 148.763 376.907C145.809 371.132 146.908 363.417 156.571 361.546C158.102 361.252 159.684 361.261 161.258 361.269H161.259C161.521 361.27 161.783 361.272 162.044 361.272C187.508 361.249 212.995 361.249 238.459 361.272H238.46C239.833 361.272 241.207 361.272 242.581 361.454C248.58 362.23 252.153 366.636 252.038 372.935C251.947 377.478 249.817 381.198 245.306 382.887C243.657 383.503 241.734 383.572 239.924 383.572C226.681 383.64 213.437 383.617 200.17 383.595H200.166H200.162H200.158H200.154H200.151H200.147H200.143H200.126C195.656 383.595 191.186 383.592 186.716 383.59H186.713H186.711ZM25.817 102.734C25.3361 96.2065 32.7097 90.3633 39.442 93.4675C40.9534 94.1751 42.4189 94.9968 43.8616 95.8641C57.5095 104.15 71.1575 112.458 84.8054 120.789C86.3626 121.725 87.9426 122.706 89.2479 123.962C92.4996 127.066 93.1178 131.243 91.1485 135.237C89.1792 139.231 84.8741 141.605 80.6149 140.738C78.8745 140.395 77.1571 139.528 75.6228 138.615C68.4338 134.325 61.2906 129.966 54.1473 125.607L54.1467 125.607L54.146 125.607L54.1453 125.606L54.1447 125.606L54.144 125.605L54.1433 125.605C52.5406 124.626 50.9378 123.645 49.3348 122.665C43.5403 119.12 37.7427 115.574 31.9311 112.07C30.0763 110.951 28.3817 109.696 27.1909 107.87C26.1376 106.272 25.6796 104.538 25.817 102.734ZM0.467465 271.319C1.65822 275.153 5.66559 278.395 9.99354 278.052C12.0122 278.352 14.0108 277.568 15.9892 276.791C16.1203 276.74 16.2514 276.688 16.3824 276.637L16.4436 276.614C32.0634 270.641 47.6832 264.669 63.303 258.674C64.3105 258.309 65.2952 257.898 66.2112 257.35C70.4704 254.771 72.1192 249.567 70.1727 245.047C68.1805 240.437 63.5319 238.04 58.5857 239.25C56.9503 239.657 55.381 240.263 53.8077 240.87C53.5305 240.977 53.2532 241.084 52.9754 241.19C38.6176 246.668 24.2369 252.169 9.87905 257.67C8.1845 258.309 6.46706 258.993 4.88702 259.884C0.879651 262.166 -0.929388 266.754 0.467465 271.319ZM320.118 140.852C315.607 140.852 312.218 138.592 310.592 134.644C309.012 130.832 309.882 126.655 312.95 123.779C313.82 122.957 314.874 122.295 315.904 121.656C322.834 117.412 329.763 113.187 336.693 108.963C340.16 106.85 343.626 104.736 347.093 102.62C348.261 101.905 349.426 101.185 350.591 100.465C352.922 99.0241 355.253 97.5836 357.604 96.1836L357.863 96.0286C359.609 94.9834 361.362 93.9341 363.26 93.2163C367.405 91.6186 372.122 93.2392 374.526 96.8455C377.183 100.794 376.977 105.724 373.885 109.08C372.969 110.084 371.87 110.951 370.702 111.636C355.886 120.698 341.071 129.713 326.232 138.729C324.285 139.939 322.27 141.012 320.118 140.852ZM387.959 277.865C388.635 278.036 389.311 278.207 389.983 278.395C397.425 278.554 402.166 270.269 399.006 263.992C397.403 260.865 394.769 259.382 391.701 258.217C381.35 254.292 371.02 250.345 360.69 246.399C355.525 244.426 350.36 242.453 345.192 240.483C344.932 240.385 344.672 240.285 344.411 240.185C343.387 239.791 342.358 239.395 341.299 239.159C336.147 238.04 331.476 240.688 329.667 245.664C328.041 250.183 330.079 255.364 334.453 257.715C335.125 258.079 335.845 258.346 336.559 258.611C336.697 258.663 336.835 258.714 336.972 258.765L336.985 258.771L336.999 258.776L337.013 258.781C345.953 262.222 354.893 265.664 363.832 269.082C370.496 271.639 377.183 274.195 383.892 276.683C385.212 277.172 386.584 277.518 387.959 277.865ZM236.239 390.246C236.894 389.846 237.648 389.386 237.269 388.091C237.166 388.07 237.057 388.043 236.943 388.015C236.574 387.925 236.154 387.823 235.734 387.84C211.667 387.863 187.6 387.909 163.533 387.977C163.403 387.977 163.272 388.123 163.083 388.335C162.974 388.458 162.845 388.602 162.686 388.753C162.938 388.982 163.176 389.234 163.411 389.484C163.88 389.982 164.343 390.473 164.907 390.762C165.51 391.077 166.112 391.398 166.715 391.719C169.34 393.119 171.979 394.525 174.754 395.509C191.722 401.512 208.759 401.489 225.773 395.486C229.368 394.208 232.803 392.542 235.963 390.419C236.051 390.361 236.144 390.304 236.239 390.246Z" fill="#A4C756"/>
</svg>
